<svg xmlns="http://www.w3.org/2000/svg" viewBox="0 0 16 16"><path d="M8.8 5.5l.2-.1s-.1.3-.2 0zM7.3 3.4h.1v.3h-.1l.2.1s-.3 0-.2.1l.4-.1c.2 0 0 0 0-.1l-.2-.5c0-.2-.2.2-.2.2zM16 8A8 8 0 110 8a8 8 0 0116 0zm-5.5-3.6s-.2-.2-.3 0l-.1.4s.4.2.4 0h.5c.2.1.5 0 .2-.2-.3 0-.4-.2-.4-.3 0 0 .1-.1 0-.1 0 0-.3.5-.3.2zM14.7 8c0-.7-.2-1.4-.3-1.8l-.2-.2c-.2 0-1 .4-1 .2s-.2 0-.4 0c0 0-.3-.4-.4-.3-.2 0 .3.6.5.7 0-.1.5-.3.6 0 .2.5-.5 1-.8 1.4-.5.4-.4-.3-.8-.6-.2-.1-.2-.4-.3-.5l-.5-.6v.1l-.2-.2.4.7.5.9.7.6.6-.3c.4.1-1 2.1-1.1 2.4-.2.2 0 .7 0 1 0 .3-.2.3-.4.5-.3.2-.2.5-.4.6-.3.2-.6 1-1 1-.2 0-.8.2-1 0 0-.3 0-.4-.2-.6v-.4l-.4-.5s0-.4.2-.5c.1 0 0-.3 0-.4 0-.2-.2-.4-.4-.6-.2-.2-.1-.3 0-.6 0-.1-.1-.3-.3-.3-.4.2-.3-.3-.5-.2l-.6.2-.7-.1c-1-.1-1.2-1.2-1-2v-.4l.5-.7.4-.2.3-.5c.3-.2.7-.2 1-.3h1s.1.4 0 .4c.3 0 .7.5 1 .4.1 0 0-.5.4-.3.1.1 1 .2 1 0 .2 0 .2-.6.1-.6h-.7s-.4-.2-.2-.4h-.3l-.1.3c-.2 0-.4-.4-.4-.4-.1-.1-.7-.5-.6-.3l.6.6S9 5 9 5.2v0L8.9 5l-.4-.3h-.6l-.1.2-.3.2v.2l-.6.2-.3-.2.1-.6c0-.1.7.2.8-.1 0-.2 0-.4-.2-.4l.5-.2c0-.1.3-.3.5-.3s.1-.3.2-.4v.3H9s.5 0 .4-.2c0-.2 0-.1.1-.1 0 0 .2-.4.3-.3 0-.2-.3 0-.4 0-.2 0-.1-.3 0-.4 0-.1-.2-.2-.2 0l-.2.7c.1.4-.4-.1-.5-.1-.2.1-.3-.2-.2-.3 0-.2.3-.1.4-.3l.3-.4c.3-.3.4 0 .8 0 .3 0 0 0 0 .2s.2.2.3 0l.2-.2c0-.2.6-.2.2-.4a6 6 0 00-2-.4l-.4.2c-.3.2-.9.6-1.2.5-.3-.1-1 .4-1.2.4 0 0 0-.4.2-.4 0 0 .9-.5.8-.6l-1.8.7s.2 0 0 .2l-.3.5c-.4.2-.4-.3-.8.3l-.6.2c-.8 1-1.5 2.2-1.7 3.5l.3.2v.6l.6.8c0 .1.3.6.2.8 0-.2.7.5.8.6.3.3.5.7 0 1 0 .2.3.8.1 1h-.2c-.3.2-.2.5 0 .7 1.2 1.3 2.9 2 4.8 2 3.7 0 6.7-3 6.7-6.6zM7 3.8s.2 0 .2-.2v-.2l-.1.1H7v.1c-.1.1 0 .2 0 .2z"/></svg>