<svg xmlns="http://www.w3.org/2000/svg" viewBox="0 0 434 445">
  <path fill-rule="evenodd" d="M402 131c56.8 67.6-2.9 101.7-2.9 101.7s38.4-47-11.5-88.5C310.7 80.3 385 0 385 0s-38.8 64.6 17 131zM15 434.7h8L14 417l8.7-13.3h-8.4l-5.4 10-1.8 3.7H7v-13.7H0v31.2h7v-10l2-2.9 6 12.7zm28.5 0c-.3-1.8-.4-3.5-.4-5.3l-.1-8.1c0-5-1.8-9.8-9.3-9.8-2.9 0-5.7.7-8.3 2l1.3 4.6a11 11 0 015.6-1.5c2.8 0 3.6 1.2 3.6 3-6.7 0-12 2.6-12 8.6a6.7 6.7 0 006.7 7 7 7 0 006-2.6l.4 2.1h6.5zm-12.7-7.2c0-2.7 2.5-3.5 5.4-3.5v2.9a3 3 0 01-3 3.2 2.4 2.4 0 01-2.4-2.6zm31.5.6l5-16H60l-2.2 11.1-.7 3.9H57l-.9-4-2.6-11h-7.8l7.4 20.8c.2.3.3.7.3 1 0 1.3-2.8 4.3-5.7 4.9l1.7 6c2.4-.5 4.6-1.7 6.3-3.4a34 34 0 006.6-13.3zm9-24.7c-.7 4.2-1.8 8.3-3.3 12.3l4-.4c2.3-3.9 4.2-8 5.6-12.3l-6.3.4zm15.5 13.3c1.5 0 3 .4 4.2 1.1l1.2-4.9c-1.8-.8-3.7-1.2-5.7-1.2-5.3 0-8.7 3.2-8.7 7.4 0 2.4 1.3 4.9 5.6 6.7 2.4.9 3 1.6 3 2.6s-.8 1.7-2.6 1.7c-1.9 0-3.7-.6-5.3-1.5l-1.2 5c2 1 4.2 1.6 6.5 1.5 5.7 0 9.3-2.7 9.3-7.3-.1-2.9-1.5-5.3-5.5-6.9-2.5-1-3.2-1.5-3.2-2.5s.8-1.7 2.4-1.7zM120 435c2.2 0 4.5-.3 6.6-1l-.9-5.7c-1.5.5-3 .7-4.5.7-5.1 0-8.3-3.3-8.3-9.8 0-7 3.8-10.1 8.2-10.1 1.6 0 3 .3 4.5 1l1.3-5.8c-2-.8-4-1.2-6.2-1.1-8 0-15.2 5.3-15.2 16.4 0 8.6 4.7 15.4 14.5 15.4zm10.2-.3h7.1l-.1-32.3h-7v32.3zm22 .4c2.6 0 5.1-.3 7.5-1.2l-1-5a17 17 0 01-5.4 1c-2.9 0-5.3-1.3-5.5-4h12.8c.2-1 .2-2 .2-3 0-7.6-3.8-11.2-9.2-11.2-6.8 0-10.5 5.6-10.5 12.1 0 7.1 4 11.3 11.1 11.3zm-.9-18.6c2.4 0 3 2.6 3 4.6h-6.5c.1-1.9 1.1-4.6 3.5-4.6zm31.4 18.2c-.3-1.8-.4-3.5-.3-5.3v-8.1c0-5-1.9-9.8-9.4-9.8-2.9 0-5.7.7-8.2 2l1.2 4.6a11 11 0 015.6-1.5c2.9 0 3.7 1.2 3.7 3-6.7 0-12 2.6-12 8.6a6.7 6.7 0 006.7 7 7 7 0 005.9-2.6h.1l.4 2.1h6.3zm-12.6-7.2c0-2.7 2.4-3.5 5.4-3.5v2.9a3 3 0 01-3.1 3.2 2.4 2.4 0 01-2.3-2.6zm30 7.2h7v-13.8c0-5.8-2.5-9.2-7.2-9.2a7.5 7.5 0 00-6.4 3.2l-.4-2.8h-6l.1 7.2v15.4h7.1v-13.2c0-3 1.5-4 3-4 2 0 2.8 1.7 2.8 4.1v13.1zm13.4-25.7c.6.4 1.3.6 2 .6a3.5 3.5 0 003.6-3.6 3.6 3.6 0 10-5.6 3zM212 412v22.6h7v-22.6h-7zm24.7 22.6h7.1v-13.8c0-5.8-2.6-9.2-7.3-9.2a7.5 7.5 0 00-6.3 3.2h-.1l-.4-2.8h-6l.2 7.2v15.4h7v-13.2c0-3 1.6-4 3.1-4 2 0 2.7 1.7 2.7 4.1v13.1zm31.5-15.6l.2-7-6.1-.1-.3 2.5h-.1a5.7 5.7 0 00-5.2-2.9c-5.1 0-9.1 4.6-9.1 11.9 0 6 3.1 11 8.5 11a6.1 6.1 0 005.1-2.5h.1v1.3c0 3.6-2 5.4-5 5.4-2 0-4-.4-5.7-1.3l-1.3 5.4c2.3 1 4.7 1.5 7.2 1.4 10.4 0 11.7-6.7 11.7-12.4v-12.7zm-9.9-1.8c1.5 0 2.8 1.2 2.8 3.7l.1 4.4c0 2.8-1.5 3.8-3 3.8-2.2 0-3.6-2.2-3.6-5.8 0-3.7 1.5-6.1 3.7-6.1zm35.2-8.1c1.9 0 3.8.4 5.5 1.2l1.3-5.8c-2.1-1-4.5-1.4-6.8-1.3-7.2 0-11.2 4.1-11.2 9.4 0 3.7 2.5 6.7 7.4 9 3.3 1.4 4.7 2.4 4.7 4.3s-1.5 3.2-4.5 3.2a16 16 0 01-6.7-1.7l-1.2 6c2.4 1 5 1.6 7.7 1.6 7.5 0 11.7-4 11.7-9.7 0-3.8-2-6.9-7-9.1-3.7-1.7-5-2.6-5-4.3 0-1.5 1.3-2.8 4.1-2.8zm21.8 25.9c2.6 0 5.1-.3 7.5-1.2l-1-5a17 17 0 01-5.4 1c-2.9 0-5.3-1.3-5.5-4h12.8c.2-1 .2-2 .2-3 0-7.6-3.8-11.2-9.2-11.2-6.8 0-10.6 5.6-10.6 12.1 0 7.1 4.1 11.3 11.2 11.3zm-.9-18.6c2.4 0 3 2.6 3 4.6h-6.5c.1-1.9 1.1-4.6 3.5-4.6zm24.7 1.9a7 7 0 011.7.2v-6.9h-1.5a6 6 0 00-5.3 4.2h-.2l-.3-3.8h-6l.2 7.3v15.3h7v-11.3c0-.7 0-1.5.3-2.2a4 4 0 014.1-2.8zm16.8 16.3l7.3-22.6h-7.3l-2.2 10-1 5.8h-.1c-.3-2-.6-3.8-1.1-5.8l-2.2-10h-7.6l7.3 22.6h6.9zm11.6-25.7c.6.4 1.3.6 2 .6a3.5 3.5 0 003.6-3.6 3.6 3.6 0 10-5.6 3zM366 412v22.6h7v-22.6h-7zm21.9 23c1.7 0 3.5-.2 5.1-.8l-.6-5.4c-1 .4-2.1.6-3.2.6-3 0-5.2-2.1-5.2-6.1-.1-3.7 2-6.2 5.2-6.2 1 0 2.1.2 3.1.5l1-5.3c-1.4-.5-3-.7-4.4-.7-7.7 0-12 5.1-12 12 0 7.2 4.2 11.4 11 11.4zm18.7 0c2.5 0 5-.4 7.4-1.2l-.8-5a17 17 0 01-5.5 1c-2.9 0-5.3-1.3-5.5-4H415c.2-1 .2-2 .2-3 0-7.6-3.8-11.2-9.2-11.2-6.8 0-10.5 5.6-10.5 12.1 0 7.1 4 11.3 11.1 11.3zm-.9-18.6c2.4 0 3 2.6 3 4.6h-6.5c.1-1.9 1.1-4.6 3.5-4.6zm21.5.2c1.5 0 2.9.4 4.2 1.1l1.1-4.9c-1.8-.8-3.7-1.2-5.7-1.2-5.3 0-8.7 3.2-8.7 7.4 0 2.4 1.4 4.9 5.7 6.7 2.3.9 3 1.6 3 2.6s-.9 1.7-2.6 1.7c-1.9 0-3.7-.6-5.3-1.5l-1.2 5c2 1 4.2 1.6 6.5 1.5 5.7 0 9.3-2.7 9.3-7.3-.1-2.9-1.5-5.3-5.5-6.9-2.5-1-3.2-1.5-3.2-2.5s.8-1.7 2.4-1.7zm-30.6-192.3s36.1-58.4-46-90.7C269.9 102 273 26.7 273 26.7s-27 106 71.1 125.5c63.7 12.6 52.5 72.2 52.5 72.2zm-97.9-59.2c84.9-24 91.5 44.4 91.5 44.4s-27.1-54.3-85.4-25.8C214.9 227.7 172.2 127 172.2 127s43.1 61.8 126.5 38.2zm-61.9 213.1a106 106 0 01-38.2 6c-57.5 0-84.7-40-84.7-90.2 0-65 42.2-95.6 88.9-95.6 18.3 0 31 3.7 36 6.5l-7.4 33.6a62.1 62.1 0 00-26.3-5.4c-26 0-47.8 17.8-47.8 58.6 0 37.7 18.7 57.4 48 57.4 9.4 0 20-1.9 26.3-4.2l5.2 33.3zm107.9-137.9c-9.8-5-20.7-7.5-31.7-7.4-16 0-23.7 7.8-23.7 16.7 0 10 7.5 15 29.5 25 28.9 13 40.8 30.8 40.8 53.3 0 33-25 56.5-69 56.5-18.2 0-36.2-4.7-44.7-9.4l7-34.7c12.3 6 25.7 9.2 39.4 9.4 17.4 0 25.8-7.5 25.8-18.3 0-11-8.2-17.1-27-25.6-28.6-13-43.4-31-43.4-52.5 0-30.7 23.5-54.8 65.4-54.8a90 90 0 0139.4 8l-7.8 33.8zM134 382H87.3L53 307.2l-12 17V382H0V200.8h41v79.7h.7c2.6-5.7 5.3-11.2 8-16.8L52 259l31.7-58.2h48.7l-50.8 78L134 382z" clip-rule="evenodd"/>
</svg>