<svg xmlns="http://www.w3.org/2000/svg" viewBox="0 0 1200 1200">
  <style>
    .centre {
      fill: rgba(0,0,0,0.2)
    }
  </style>
  <path class="centre" d="M121 564c0 7 0 15-7 20-6 4-15 5-22 1-8-4-15-8-21-15-5-6-7-14-10-22l-4-12-3-5 1-5 2-6 3-5 9-10 8-6c4-2 7-5 11-4 7 0 13 5 16 11 5 8 10 17 12 27 3 10 4 21 5 31z"/>
  <path d="M109 566c1-6-2-10-3-15l-2-16c0-8 0-18-6-24l-4-3c-2-1-5 1-6 2l-12 6c-4 3-2 8-3 13 0 4-4 5-8 6s-7 2-11 0l-9-12c-5-7-12-13-14-22-3-7-1-16 5-22 2-3 6-7 10-7l6 2c2 1 4-1 7-1 4 1 8 5 13 5 5 1 7-3 12-5h12c4 2 5 6 7 10l5 11c1 3 6 1 9 1 5 1 8 5 10 8l6 13c5 10 3 21 3 32l-2 33c-1 8-4 16-12 20-5 2-10 3-15 1l-15-4c-9-5-15-13-21-20-3-5-17-7-13-16 2-4 7-4 11-2l13 5c5 1 9 3 13 6 3 2 8 7 11 6 4-1 3-9 3-11z"/>
  <path class="centre" d="M572 456c-6 0-11 1-16-1-5-1-7-5-9-9-3-11 0-22 6-30s15-11 23-6c9 4 14 14 14 24 1 5 0 11-4 15-3 4-9 9-14 7z"/>
  <path d="M603 449c-3-1-5 1-8 2s-6 0-8-1c-3-1-3-4-5-5-3-2-4-4-5-7-2-5-5-13-11-15-2-1-4 1-5 3l-3 8c-2 2-4 5-3 9l5 8 4 10c1 3 3 6 2 9l-4 7-3 8c-3 5-9 7-15 6-6-2-10-7-11-12l-2-10c-1-4-2-7-1-11 0-4 2-6 4-9 1-3 0-6-1-9l-6-8c-2-3-2-7-2-10a54 54 0 0120-36c6-5 14-4 21-5 7-2 14-1 19 4l6 8 8 10c2 3 5 6 6 10l4 9c3 6 7 10 6 17-1 6-5 10-12 10z"/>
  <path class="centre" d="M262 308l-2 16c-2 6-4 10-8 14-6 7-14 11-24 10-5 0-9-3-14-5-4-3-9-5-11-10l-7-13c-2-4-7-6-9-11-4-8-2-18 0-26 2-11 4-22 9-31 2-4 6-7 10-9s8-1 13-2c4-1 7-5 11-5 5 0 9 3 12 7l8 14c3 5 6 10 7 16l3 20 2 15z"/>
  <path d="M240 228c7-1 13 2 19 6 2 2 5 3 6 6 2 2 3 6 3 9 1 7 4 14 3 21-1 3-1 5 2 8l5 7c3 7 3 15 3 22 0 6-1 13-4 20a21 21 0 01-5 8l-7 5c-2 2-1 6-1 8v11c-1 6-4 9-10 9-3 0-5-1-7-3l-9-4c-6-3-12-6-17-11-2-2-5-4-5-8 0-3 3-7 5-10 2-5 3-11 8-14 3-2 7-1 10 0 2 0 6 3 8 2v-6l-1-11c0-7 3-13 3-20 0-4-2-8-3-11-2-3-5-4-9-5-7-2-13-6-17-12-5-7-4-14 1-20 4-5 13-9 19-7zm-45 102c-5 0-9-2-13-5s-8-4-13-5c-8-3-17-6-22-13-4-7-1-17 1-24l4-6 4-4c3-3 4-7 8-10 3-2 7-3 8-7l2-6 5-4c3-3 5-6 9-7 5-1 8 2 11 5 2 4 5 5 8 9s4 9 2 14c-2 4-5 7-6 11-2 5-2 10-2 15 1 8 6 15 5 24 0 6-3 13-11 13zm-60-174c0 3-2 6-1 9l5 8c1 5 0 12-4 16-4 5-12 5-18 2l-10-5-10-5c-5-3-12-7-15-13a15 15 0 01-1-11c0-3 3-6 4-9 2-3 5-6 6-10l4-9c3-5 8-7 14-6 7 2 15 6 21 11s3 15 5 22zm342 385c-5 0-11-1-13-7v-9c1-4 2-6 5-9l5-9 6-10c3-7 4-14 10-19l10-5c4-1 6 1 10 2 7 3 11 6 11 14 0 4 1 8 3 11l5 12c1 7-3 12-10 14-4 2-8 1-13 2-4 0-8 2-11 5-5 3-10 9-18 8zM304 172c-5 0-9 0-13-2-4-1-7-4-10-7-3-2-5-4-6-8l-2-5-4-6c-2-4-1-7 1-11l1-9c-1-4-4-7-4-11 1-4 3-7 6-9 5-3 14-2 19 0l8 7 10 8c4 4 10 9 8 15 0 3-3 6-7 6-2 0-4 0-2 3 3 3 7 3 10 5 4 2 5 6 4 10s-5 6-8 8c-3 3-7 7-11 6z"/>
  <path class="centre" d="M270 468c-5-9-8-22-1-30 5-5 9-8 16-9 5-1 11-1 17 1 8 3 19 10 20 20 0 6-2 12-4 17-3 6-8 9-14 11s-12 5-19 3-10-8-15-13z"/>
  <path d="M259 449c6-4 11-2 16 3l7 6c1 4 2 6 6 8l8 2c3 1 6-2 10-3 6-1 10 3 12 8 2 6 0 10-6 13-6 4-14 7-21 8-6 2-12 1-18 0-5 0-12-1-16-5l-4-11a61 61 0 01-2-12c0-6 1-13 8-17zm13-9c-2-4-4-9-1-13 4-4 10-6 15-9 6-2 12-4 18-4 5 0 11-1 16 2s7 10 9 16c1 5 2 12 0 17-2 4-6 9-11 9s-9-4-12-6c-5-4-11-2-17-3-4 0-7 0-10-2-4-2-5-4-7-7z"/>
  <path class="centre" d="M1182 154c-6-9-9-22-1-31 4-5 8-7 15-9 6-1 11-1 17 1 8 4 20 10 20 21 0 5-2 12-4 16-3 7-8 9-14 12-6 2-12 4-19 2-7-1-10-7-15-12z"/>
  <path d="M1170 135c6-4 11-2 16 2 2 2 5 3 7 7 1 3 2 5 6 8l8 2c4 0 6-2 10-3 6-1 10 3 12 8 2 6 0 9-6 13-6 3-13 7-21 8h-18c-5-1-12-1-15-5-3-3-3-7-4-11a61 61 0 01-3-12c0-7 1-14 8-17zm13-10c-2-4-4-8-1-12 4-5 10-7 15-9 6-2 12-5 18-4 5 0 11-1 16 1 5 4 8 11 9 17 1 5 2 11 0 16s-6 10-11 10-8-4-12-7c-5-3-11-2-17-2-3 0-7-1-10-3-3-1-5-3-7-7z"/>
  <path class="centre" d="M-18 154c-6-9-9-22-1-31 4-5 8-7 15-9 6-1 11-1 17 1 8 4 20 10 20 21 0 5-2 12-4 16-3 7-8 9-14 12-6 2-12 4-19 2-6-1-10-7-14-12z"/>
  <path d="M-30 135c6-4 11-2 16 2 2 2 5 3 7 7 1 3 2 5 6 8l8 2c4 0 6-2 10-3 6-1 10 3 12 8 2 6 0 9-6 13-6 3-14 7-21 8h-18c-5-1-12-1-15-5-3-3-4-7-5-11a61 61 0 01-2-12c0-7 1-14 8-17zm13-10c-2-4-4-8-1-12 4-5 10-7 15-9 6-2 12-5 18-4 5 0 11-1 16 1 5 4 7 11 9 17 1 5 2 11 0 16s-6 10-11 10-9-4-12-7c-5-3-11-2-17-2-3 0-7-1-10-3-3-1-5-3-7-7z"/>
  <path class="centre" d="M466 152c-1 5-2 10-6 13-2 1-5 0-6 2v10c0 6 0 11-5 15-4 5-11 3-16 1-6-3-8-9-9-15v-23c1-8 0-15 2-23 0-2 1-5 4-6l3-2 5-2c4-1 6 2 8 4l9 10 9 9 1 4 1 3z"/>
  <path d="M409 187c0-5-2-9-3-13l-1-14c1-5 3-12 8-15 3-2 6-2 9-2 4 1 8 1 10 5 1 3 3 6 3 10-1 4-3 6-6 9-2 2-3 2-2 4 0 2 2 4 3 5 2 3 4 7 8 5 4-1 7-3 11-2 4 0 7 2 10 5 7 7-2 12-4 19-1 4 0 8-2 12-2 3-6 3-9 3l-6-2-7-1c-4-1-7-4-10-7-2-4-6-6-9-9s-4-8-3-12zm67-50c0 5 1 11-2 17-2 6-8 7-13 2-4-3-10-6-13-11-1-3-3-5-6-5h-10c-6-1-12-5-14-11-3-6-1-12 2-17s9-11 15-10c6 0 11 5 14 10l5 9c2 3 6 2 9 2 4 1 7 2 10 5 3 2 3 5 3 9z"/>
  <path class="centre" d="M391 89c-1 9-2 22-11 28-4 3-10 1-14 1l-15-3c-5-1-9-6-13-9l-5-6-4-7c-4-4-8-7-10-12-3-4-3-8-8-11l-11-8c-5-4-8-8-8-14l1-7 3-8 4-7 3-8c2-2 3-4 6-5 2-2 5-2 8-1 6 2 12 1 18 2 6 0 12-1 18 1 5 2 10 6 14 9a22 22 0 018 14l1 10 5 8c3 5 6 11 7 17l2 10 1 6z"/>
  <path d="M304-1l13-1 12-4 13 1c3 1 4 3 6 6s3 6 7 5l4-2h7c3 1 6 2 8 5l8 6c3 3 3 5 3 9l-1 14v7l-2 5c0 3 5 6 7 8 6 6 10 13 13 20 4 6 6 14 4 22-1 5-4 12-10 14-7 1-14-5-16-11l-2-12c-1-4-2-8 0-12 2-2 4-4 2-7-2-4-5-5-8-7s-5-6-8-7c-3-2-8 0-11-3-3-2-2-7 0-10 1-3 4-4 3-8l-5-7c-3-3-7-4-11-4s-7-2-11-1l-10 1c-3 0-6 1-8 4-2 4-3 7-7 9-6 3-17 2-18-7-1-2 0-3 1-5l1-5 3-11c3-6 6-13 13-12zm89 137c0 12-13 22-25 19-7-2-14-8-18-14-1-3-2-5 0-8s4-6 1-8l-8-6-5-9c-2-5-3-12 3-16 5-4 11-3 16 1s6 10 8 16c1 4 3 5 7 6l9 4c6 3 12 7 12 15z"/>
  <path d="M276 69c-1-6 2-10 6-13 4-4 8-9 14-9l8 2 7 2c5 1 6 6 10 10 4 3 8 7 8 12 1 5-2 10-5 13-4 3-9 6-14 6l-7-2c-2-2-3-1-5 0-6 1-11-4-15-7-5-2-8-8-7-14z"/>
  <path class="centre" d="M211 509l14 1c4 1 8 4 11 7 7 5 15 11 19 19 2 4 2 8 1 12l-3 15c-1 3-4 7-7 9l-5 4-1 4c-1 7-4 15-12 17-4 1-9 0-13-1-5-1-10-1-14-4-7-3-14-11-17-18l-3-12-2-15v-8l2-4 2-7 5-4c2-1 3-4 4-6l5-4c4-4 9-5 14-5z"/>
  <path d="M208 497c8 0 13 2 18 7 2 2 3 5 2 8 0 3-2 5-4 7l-3 8-7 9-13 14c-3 5-6 10-13 9-5-1-11-6-15-10-4-5-7-11-6-18 0-6 2-13 5-19 3-5 8-7 14-9 7-3 14-7 22-6zm48 18l8 1 9 2c5 2 8 6 10 11 3 9 0 21-6 28-3 4-8 7-13 10-5 2-11 4-16 2-3 0-5-2-6-4l-4-6-1-7 2-11c1-6 3-13 6-18s6-9 11-8zm-64 57l9-1c3 0 6-1 9 1l2 5 5 4c4 3 9 6 11 10 2 5-1 10-4 14s-7 7-12 6l-8-2-10-2c-9-3-20-10-23-19-1-5-1-11 3-14 5-4 12-3 18-3z"/>
  <path class="centre" d="M-25 378l1-17c1-4 1-8 4-12l7-11c4-3 9-3 13-3 6 0 11 1 16 3 5 1 11 1 15 4 4 2 7 6 10 10l8 13c4 9 9 19 7 29-1 11-7 21-10 30-2 5-3 10-7 13l-11 4c-4 2-7 3-12 2s-9-2-14-5l-12-11c-3-4-5-9-6-14l-6-16c-3-6-3-12-3-19z"/>
  <path d="M79 374v5l-3 3 1 5 1 7c1 8-1 17-5 24-4 5-11 9-18 6l-8-7-10-8c-5-4-8-11-5-17l6-6c2-1 6-2 7-5 0-2-4-4-6-6a26 26 0 01-5-11c-1-6 0-12 6-15 4-1 9-2 12 0l6 4 5 3 11 8c3 3 6 6 5 10zm-60 84c-7 1-12-3-17-7a74 74 0 00-8-7l-9-5c-4-3-6-10-2-14 3-3 9-1 13-4 2-2 4-4 7-4 4-1 8 0 12 1l8 2 9 4 18 9c4 3 9 7 7 13-3 6-9 7-14 8-8 1-16 5-24 4zm-48-116c0-5 1-11 5-15 4-3 10-4 15-5 11-1 24 3 32 11 7 5 5 16-1 21-3 4-9 4-13 7-5 4-9 7-16 5l-8-4-8-5c-5-3-6-9-6-15zm-15 42c-1-9 3-19 14-20l9 1 8 1c4 3 5 9 5 14 0 6 0 11 3 17 3 4 7 7 7 13-1 5-4 5-9 5l-7-1-10-3c-12-4-21-14-20-27zm562 219c-5 0-9-3-11-7-3-3-7-8-6-13l2-7 3-10c2-5 4-10 8-15 2-4 7-6 12-4 3 2 9 5 10 10 1 2 0 4 2 6l4 5c1 5-1 11-2 16-3 10-11 19-22 19zm659 578c-2 5-7 7-11 8s-10 2-14 0l-6-6-7-6-11-12c-3-5-4-10 1-13 3-3 8-7 13-6 2 0 3 2 6 1 2-1 4-2 6-1 5 0 10 4 14 7 8 7 13 18 9 28z"/>
  <path class="centre" d="M76 318c-6 0-12 0-16-4l-8-7-8-5c-6-2-10-7-13-12-3-6-9-10-14-14L1 263c-5-3-10-7-11-13-2-6-1-14 1-20s5-11 9-16c3-6 7-12 12-16l9-3 7-4c5-2 12 0 17 1 5 0 11 0 16 3l7 7 8 5 7 5 2 4 4 3c4 4 5 11 8 16l11 18c4 8 4 15 0 23a44 44 0 01-6 9c-3 2-5 4-6 8-1 6 1 14-3 20-4 5-11 5-17 5z"/>
  <path d="M84 280c7-1 14 2 20 6l7 7 8 7c4 4 7 10 6 16-1 5-4 10-8 13l-7 3c-3 1-4 4-6 6-5 6-11 5-17 2-6-2-10-7-12-12l-11-17-2-5 2-5 2-5 3-5 5-9c3-3 6-2 10-2zm-55 25c-8 1-16-1-22-5l-9-6-10-5c-12-6-20-25-10-36 8-8 22-3 30 2l9 6 8 8c5 4 12 6 17 11 6 4 7 13 3 19-3 6-11 6-17 6zm76-88c7 0 12 0 18 5 5 5 9 10 9 17 1 6-1 13-3 19-1 3-3 9-7 9-3 1-6-1-9-1l-9-3-8-5-10-4c-5-2-11-4-13-10-3-6-1-12 3-16l8-5c3-1 7-2 9-4l6-2h6zm-66-42h8c4 1 5 3 7 5 4 4 10 4 14 9 4 4 8 9 7 15-1 5-5 9-10 10H51l-13-2c-10-2-18-8-17-18s7-21 18-19zM3 244c-7 0-17-3-21-9-5-7-1-17 3-24 2-3 4-8 7-10 5-3 11 0 16 2 4 1 9 0 12 4s2 9 1 13c-1 6-4 11-7 16-2 5-6 9-11 8z"/>
  <path class="centre" d="M174 172c-1-10 3-19 5-28 2-8 4-15 11-20l10-7c3-2 5-5 9-5s6 2 8 5l8 12 5 12c2 3 6 5 8 9 5 7 6 17 6 25-1 9-1 17-9 23-7 6-16 5-24 5h-15c-5-1-9-5-13-8-8-6-9-14-9-23z"/>
  <path d="M188 221c-8-1-20-1-24-9-3-6-3-12-1-17l5-8 4-8c3-5 8-10 15-9 3 1 3 3 5 6l6 5c2 2 1 3 2 6 1 2 4 2 6 4 4 3 7 9 6 15-2 11-14 15-24 15zm70-8c-6 0-12-2-18-5-4-3-8-4-11-8a8 8 0 01-2-6l-1-9c-2-4-4-10-3-15 0-5 3-10 9-10l7 2 9 4 5 4 5 2 3 6c0 3 2 6 4 8 3 6 7 10 6 17-2 7-7 10-13 10zm-28-73c-5 0-9-2-13-5l-11-10c-3-3-6-7-5-12s4-9 8-12c7-5 17-3 25 0 8 4 13 11 14 20 0 5-2 11-5 15-3 3-8 4-13 4zm-63 5c0-9 0-20 6-27 2-4 6-7 10-6l7 3 7 4c4 2 5 6 4 10l-3 16c0 4-1 9-4 13-3 2-7 3-11 3-8 0-18-7-16-16z"/>
  <path class="centre" d="M245 8c0 12-3 23-9 33-5 8-10 17-18 22l-16 5c-5 1-10 2-14 5s-6 7-11 8l-17 3c-9 0-15-7-15-16-1-5 1-10 3-16 2-5 2-11 3-17s3-11 6-16c2-5 4-8 9-11l32-16 16-7c4-4 8-8 14-6 11 4 16 19 17 29z"/>
  <path d="M237-33c6 0 12 1 16 5l5 6 6 6c6 9 4 22-2 31-4 5-8 10-10 16s-2 12-2 19l1 17c1 3 2 9-2 11-4 3-10 0-15-1-6-1-13 0-19-2-5 0-12-1-15-5-4-4-7-11-5-16s7-6 11-7c6 0 11-1 16-3 3 0 4-1 4-4v-9c1-6 6-10 8-16 1-1 2-5 1-6-2-3-7-3-9-4-6-3-11-7-13-13-3-7 0-12 5-17 2-3 4-5 7-6 4-2 8-2 12-2zm-97 68l1-12c0-5 1-8 3-11 5-7 8-14 15-20 3-3 6-5 10-5l13-2c8-2 15 5 17 12 2 6 2 16-2 20-5 5-12 2-18 3-2 0-14 3-14 7 0 2 2 3 3 4l2 6c0 4 1 9-1 12-3 6-11 9-16 5l-5-4-5-4c-3-3-3-7-3-11zm-5 42c-1-5 1-9 5-12s9-1 14 0l5 3c2 2 4 1 6 2 5 0 10 4 14 6 4 3 7 6 5 11-1 5-6 5-11 5l-6 2c-2 1-3 3-4 6-3 5-7 4-12 2s-9-5-12-9-5-11-4-16z"/>
  <path class="centre" d="M46 58V38l-3-16c0-7 1-16 7-20 5-3 10-2 15-4 4-3 9-5 14-6 5-2 11-4 16-4s11 3 14 6c4 4 6 9 8 13 3 4 5 9 6 14 0 6-2 11-3 17l-3 18-5 15c-1 6-4 10-7 16-2 4-2 10-6 13-5 2-10 1-14 1l-19-3c-5 0-11-1-14-5s-4-10-5-15l-1-20z"/>
  <path d="M24 76c-1-6 0-11 3-16s8-6 12-10c3-2 8-6 7-10s-6-7-8-10c-3-3-5-8-9-10-3-1-8-2-10-6C14 3 30 0 39 0c5 0 10 0 14 3 5 2 9 7 11 11 5 8 10 18 2 26-3 3-6 1-10 1-4 1-4 5-2 8l5 2 3 5c1 4-2 10-3 14l-3 18c-2 5-7 8-13 8l-8-2c-3 0-5-1-7-3-4-4-3-10-3-15zm81-1c2 0 5 0 7 2s2 5 2 7c-1 6-5 10-7 15-1 2-2 5-4 6l-5 1-7 4-9 2c-5 2-10 6-16 4l-7-5c-2-1-4-2-5-5-1-4-3-12 2-14l6-2 9-2c6-1 13 1 17-4s9-9 17-9zm-5-43c-1-2 0-5 1-7 1-1 4-2 4-4l-1-5c-1-3 0-6 2-8 3-4 9-6 13-3s7 8 9 11c4 5 4 9 3 15-2 5-1 12-2 17 0 4-1 9-5 12-3 2-9 3-13 1s-6-7-7-11c-1-6-5-11-4-18zm-4-68c15-1 33 29 14 35-5 1-9-2-14-2L80-5c-8-2-13-9-8-17 2-4 5-9 9-11l15-3z"/>
  <path class="centre" d="M576 268c7 1 14 1 19 7l6 9 6 12c5 14-1 31-10 42-4 4-9 9-16 10-7 0-15-5-20-9-7-3-10-9-12-16-2-3-3-6-3-10l3-12c2-8 1-19 7-26 5-5 13-7 20-7z"/>
  <path d="M628 300c0 10-1 19-6 27-4 7-11 13-16 19-4 5-11 12-18 10-4 0-6-3-9-6s-3-6-1-10c2-8 5-15 11-19 7-5 9-11 9-19-1-4-1-8-3-11l-4-6-1-6c-2-5-3-17 5-17 4-1 8 2 11 4 4 2 7 3 10 7l10 11c2 5 2 11 2 16zm-95 38l3-15c1-4 2-9 5-13s8-2 13-1c1 1 4 1 5 3l-1 6 3 6 3 7 3 17c1 4 1 9-3 12s-8 2-12 1c-6-1-10-2-14-7-4-4-6-12-5-17zm27-84c5-1 8 4 11 7 4 5 8 8 7 14s-5 10-9 14-7 7-13 7c-5-1-10-3-13-8l-3-9v-9c0-4-2-9 2-13s12-3 17-3z"/>
  <path class="centre" d="M441 499l-3 9-6 6c-5 3-11 1-15-1-10-5-14-16-15-26l-3-10c-1-3-3-6-2-9l4-6 3-2 4-2 4-3c3 0 5 2 7 3l11 12a62 62 0 0111 29z"/>
  <path d="M442 528c-3 0-5-2-7-5 0-1-1-3-2-2v4c1 7-6 13-13 11-3-1-5-4-7-6l-6-12-5-10c-2-4-4-8 0-11 5-3 12 2 15 5 2 2 4 5 7 3s2-5 1-9c-1-6 1-12 8-13 4-1 5 1 8 2 4 2 7 3 10 6 2 2 5 7 5 11l-2 6-4 3 1 5a13 13 0 010 6c-1 5-5 5-9 6zm-40-88c4 1 9-1 14 1l5 5c2 1 4 2 5 5 2 4 2 9-2 12-2 3-5 3-5 8 1 3 2 8-2 11-3 2-8 1-11 0-4-2-6-6-9-10s-7-6-9-10c-5-10 3-23 14-22z"/>
  <path class="centre" d="M510 56c0 11-2 21-9 30-3 4-5 7-9 8h-17c-5 0-10-1-13-5l-10-12-10-13c-4-4-3-9-6-13-2-5-6-8-9-13a61 61 0 013-47c3-4 6-8 11-10l8-1h9c8 2 18 5 23 12 4 5 3 11 5 16 3 6 7 10 11 14s8 8 10 14c3 6 3 13 3 20z"/>
  <path d="M440-35c4-1 9 0 13 1 4 0 7 0 10 2l10 6 11 5c7 3 11 11 12 18 2 7 1 15-4 21-2 2-4 4-7 3l-2-3-4-3c-3 0-5-1-7-4l-3-12-1-9c0-3-4-4-7-4l-10 3c-3 1-7 2-9 4-6 5-6 11-7 17l-4 10c-1 3 0 5 3 7 6 5 13 7 19 12l6 7c2 3 2 7 2 11v11c0 3 1 7-3 8-3 1-7-2-10-2l-11-5c-5-4-8-11-13-16l-6-8-7-8c-6-7-5-16-7-25-1-8 3-16 7-23 5-12 15-24 29-24zm70 138c0 8-7 15-15 16h-2l-7-2-5-5c-3-3-7-5-8-9-2-5-2-10-2-15s0-10 3-14c5-8 14-3 19 2 4 4 6 9 10 12 5 5 7 9 7 15zm-19-57c1-7 2-23 11-24 5-1 7 3 10 6l4 4c2 3 2 5 2 8l2 15c1 5-1 11-2 16-1 3-3 7-7 8-3 0-6-1-8-3-4-3-4-9-7-13-2-5-5-11-5-17z"/>
  <path class="centre" d="M504 290c-2 10-2 21-7 31a35 35 0 01-22 17l-14 3c-4 2-9 3-13 2-4 0-8-2-11-4-4-3-5-7-6-11l-3-14c-1-6 1-10 3-14 4-8 5-17 8-25 4-11 12-27 27-26 5 1 10 3 14 6 4 1 9 2 12 5l8 14a35 35 0 014 16z"/>
  <path d="M492 302v-13c-1-4-6-7-9-10-5-5-5-15 0-20 3-2 5-4 9-5 4 0 9 0 13 2l5 5 1 6 4 5 3 7c2 4 2 9 2 13 0 5 1 9-3 13-2 1-8 2-8 5-1 3 5 7 6 9 3 4 3 8 1 12-3 4-7 4-12 4-10 0-20 3-29-2-8-4-9-16 0-20l8-1 8-1c2-2 1-6 1-9zm-54 58c-7 0-15 0-20-5-2-3-3-7-3-11l3-6 4-7c1-1 5-4 5-6l-3-1-7-1c-6-3-8-13-6-19l5-12c2-4 4-9 8-10 8-4 17 3 20 10 4 8 0 16-5 23-2 2-5 7-2 9l5 2c3 0 5 1 7 3 7 4 16 13 11 21-5 7-14 11-22 10zm10-82c-4 0-9-2-10-6-2-5-4-12-2-18 3-5 7-10 12-13 4-4 8-5 14-4 5 1 10 4 12 9 3 5 1 11-2 15-5 8-13 17-24 17zm-1 298c0 5 0 10-5 12-3 2-8 1-9 5s-2 7-7 6c-4 0-8-2-10-6-2-5 0-10 0-15v-16c0-3 1-9 5-10 3-1 8 1 11 2 4 1 9 2 11 6l2 7c2 3 2 6 2 9zm340-49c0 5-1 10-5 12-3 2-8 0-9 5-1 4-3 7-7 6-5 0-8-3-10-6-2-5-1-10 0-15v-16c0-4 0-9 5-10 3-1 8 1 11 2 4 1 8 2 10 6 2 2 2 5 3 7l2 9z"/>
  <path class="centre" d="M481 191l2-10 5-9c2-5 3-14 8-16 6-1 12-3 16 2 4 3 6 9 9 13 1 2 3 5 3 8l1 11c1 7 3 13 0 20-3 9-12 18-22 12-12-6-20-18-22-31z"/>
  <path d="M534 216c1 4-2 7-3 10l-5 13c-4 8-12 5-14-2-2-3-2-5-6-5l-11-4c-7-2-15 1-19-8-2-7 0-15 3-21 2-3 4-7 8-8 3 0 6 0 9 2 4 2 2 7 2 10 1 4 4 6 7 8 3 3 7 6 11 2l1-5c1-3 0-11 5-11 8 1 13 12 12 19zm-5-65c0 3-2 3-4 6-1 2 0 5 1 7 2 5 5 11 4 17-1 3-5 7-9 4l-4-7-7-6c-2-2-2-3-5-2l-6 6c-3 2-8 3-10 0-3-4 1-12 3-15l12-14c3-5 8-9 14-7 4 2 11 6 11 11z"/>
  <path class="centre" d="M390 379c1 5-1 9-3 14-2 4-2 9-3 13s-2 8-6 10c-3 2-8 6-12 7s-8 0-12-1l-13-5c-9-5-15-11-20-19-9-15-8-33-1-49 4-7 10-13 18-16l12-5c4-2 9 0 14 1 8 3 12 11 16 18 6 10 9 20 11 32h-1z"/>
  <path d="M326 404c-4 1-7-2-10-4l-5-2c-3-1-4-3-6-5-6-5-15-2-21-8-4-5-3-12 3-15 3-1 4-1 4-5s1-8 4-11l7-12 8-10c3-3 6-5 10-5s7 3 10 5c6 3 12 8 11 15-1 3-3 6-6 7-2 2-7 1-9 4l-1 6v7c0 5 2 10 5 15 3 6 6 18-4 18zm37-95c11-1 23 9 25 19v10l1 10c1 5 2 13-4 15-10 4-17-10-20-17l-3-6c-2-2-5-2-7-2-5 0-9-3-10-8-2-11 7-21 18-21zm42 81c0 7 1 21-7 25-4 2-12 0-16-4-3-2-3-6-3-9-1-4-2-7-6-7-6-1-13-4-15-10-1-5 4-13 9-13 6 0 15 13 20 8l4-8c3-2 7-2 10 0 6 3 4 12 4 18zm-65 26c0-5 3-9 8-12l7-2c2 0 3 2 4 4l8 2 9 3c5 1 8 2 8 8s-3 11-6 15c-4 4-9 2-14 1l-16-9c-4-2-8-4-8-10z"/>
  <path class="centre" d="M217 394c-2 13-2 26-5 39l-3 17c0 5-2 10-5 14a22 22 0 01-13 8h-9l-8 1c-10-2-18-10-24-18-6-9-14-16-19-27-2-5-4-11-3-16l5-16v-8-8l3-4 3-6c5-4 11 1 16-1 4-1 7-5 12-6h10l6 5c5 3 11 3 16 3s9 0 12 5c4 5 6 11 6 18z"/>
  <path d="M166 484c-8-1-15-4-20-10l-8-10-9-6-8-7c-4-2-9-4-11-8-4-6-3-14-1-20s6-13 12-14c5 0 8 2 12 3s8 1 11 3c5 2 12 6 13 12 1 3-1 5-2 8 0 4 1 8 3 11l8 11 8 10c6 7 1 17-8 17zm-50-113c0-7 3-11 8-15s10-8 16-10c6-3 13-2 20-1 6 2 12 3 16 7 5 4 8 10 5 16-2 5-7 7-11 11-3 5-3 11-7 14-2 2-5 3-7 3l-11 1c-12-3-29-12-29-26zm78 41c-1-6 3-11 5-17 1-5 3-10 7-13 5-4 11-4 16-2l7 5 7 5c5 3 7 8 5 14-1 5-6 8-9 13-2 5-2 11-5 15-3 3-7 3-12 3-10-3-21-11-21-23zm7 33c3 0 5 0 8 2l7 5 5 14c0 5-2 10-6 12-4 3-9 3-14 2-8-2-17-8-16-18 0-8 6-18 15-17z"/>
  <path class="centre" d="M656 379c0 4-4 8-7 11-5 3-9 7-14 9s-10 4-13 0c-4-3-6-7-8-12-2-11 5-21 11-29 3-4 5-8 10-9 4-1 9 0 12 3 7 7 8 18 9 27z"/>
  <path d="M622 368c6 7 4 15 0 22-2 7-6 11-14 9-6-1-12-8-9-15l5-7 5-9 4-3h4v-4l1-6c1-7 4-14 8-20 2-5 6-11 12-10 6 0 6 5 6 10 0 4 2 6 3 9 2 4 1 9-1 13-2 3-6 6-10 8l-7 3h-7zm19 36c-4 0-9 0-11-3-4-6 4-10 6-14 3-4 4-10 10-12 3-1 3-1 4-4 1-2 2-5 4-5 3-1 5 1 7 2l6 5c2 5 2 11 0 15-3 12-14 17-26 16zM482 567l-1 18c-1 4-2 9-5 12-3 4-8 6-12 2l-6-5-3-5 2-7 1-9c1-5 1-10 4-14s8-8 13-5c4 3 7 8 7 13z"/>
  <path class="centre" d="M396 247c1 10-5 17-12 24l-9 10c-4 3-9 2-14 2-6 0-11 2-17 3-5 0-11-1-15-3s-9-5-10-9l-3-7-4-7c-2-4-5-8-6-13l3-15 5-16c0-5 0-10 2-16 1-4 4-8 7-12l6-4 6-5c4-2 10-2 14 0s7 6 10 9c5 4 10 7 13 12 4 4 6 10 9 14l11 17a38 38 0 014 16z"/>
  <path d="M415 253c0 4 1 10-3 13-4 4-11 1-16 0-4 0-9 1-12-2-4-4 1-9 3-13 4-5 4-8-1-12-2-2-4-3-7-3l-8 2c-3 0-9-1-10-5-3-4 1-7 4-11s4-9 2-14l-5-5a31 31 0 00-7-4l-14-8-5-5c-2-2-2-5-2-8 1-10 13-17 21-12l7 5 8 5c5 3 7 6 8 12l4 8 2 9 5 8 5 9 15 14 5 7c2 3 1 7 1 10zm-84 52c-11 0-18-6-21-16l-7-19c-2-5-3-10 0-14 5-7 15-4 21-1l5 2c2 2 2 3 2 6 1 5 6 12 9 15l6 9v9c-3 6-8 10-15 9zm-16-65c-8 1-18-6-21-13-4-8-1-19 3-26 2-3 4-7 7-9 4-4 9-3 13 0 7 6 13 14 12 23l-5 18c-2 4-4 7-9 7zm77 52c-3 1-5-1-8-2l-9-1c-5 0-10-2-15-5-6-4-9-17-1-20l7-1 8 1c5 0 9 4 13 7 5 3 8 7 10 12 2 4 0 9-5 9z"/>
  <path class="centre" d="M501 387l-2 29c-1 8-3 17-7 24-3 7-10 10-16 14l-9 7-11-1c-9-3-11-10-14-18-2-7-4-16-3-24s6-15 11-20 11-10 18-12l7-1 5-5c3-2 7-6 11-7 7-2 10 8 10 13z"/>
  <path d="M423 409c0-10 2-20 12-25 8-3 19-2 25 5 3 3 4 8 2 13 0 2-2 4-4 5l-5 1c-3 1-3 2-2 5l2 9c0 6-4 11-10 12-6 0-13-2-17-7-3-5-4-12-3-18zm55-31c0-8 3-15 10-18a25 25 0 0114-2c4 1 10 0 14 3 8 5 7 16 2 23l-10 10c-4 2-8 5-12 5-5 0-10-3-14-7-3-3-5-10-4-14zm34 47c-1 7-1 17-8 23-8 6-20 0-23-9-2-5-2-10-1-15a9 9 0 014-5l9-3c2-2 3-4 6-5s6-1 9 1c4 3 4 8 4 13zm-49 48c-7 0-16-3-18-10-4-10 6-15 14-17 8-1 16 3 17 12 1 7-5 16-13 15z"/>
  <path class="centre" d="M1087 447l-4-29c-1-8-1-17 1-25 3-8 9-12 14-17l7-8c4-2 8-2 11-2 9 1 13 7 17 15 4 7 8 15 8 23s-2 15-7 22c-3 5-9 12-15 15l-6 3-5 5c-2 3-5 8-9 10-7 3-11-7-12-12z"/>
  <path d="M1159 409c1 10 1 21-8 27-6 5-17 6-24 1-4-3-6-8-6-12 0-3 1-5 3-7l6-2c2-1 1-2 0-5l-4-9c-1-5 2-11 8-13s13-1 18 3c4 5 6 11 7 17zm-48 42c2 7-1 15-7 20-3 2-8 4-12 4-5 1-10 2-15 0-8-3-10-14-6-22l8-12c3-3 6-6 10-7 5-1 11 1 15 3 4 3 7 10 7 14zm-42-39c-2-8-3-18 2-24 7-8 20-5 25 3 3 5 4 10 3 15l-2 6-8 5-5 6a10 10 0 01-9 1c-5-2-6-7-6-12zm38-57c7-1 15 0 20 6 5 9-4 16-11 19s-17 1-19-7c-3-7 2-18 10-18z"/>
  <path class="centre" d="M392 540c0 11-7 27-20 21l-6-6c-1-4-4-5-7-6-6-2-9-8-13-13s-8-10-10-18v-10c1-4 3-6 6-8l6-8c2-2 4-3 7-3 7-1 13 3 17 8l8 10 4 11 5 10 3 12z"/>
  <path d="M369 505c-6 0-11-4-17-6-4-1-9-4-9-10 1-6 3-13 6-18l2-9 2-9c7-12 17 1 22 8 3 4 5 11 0 14-3 1-4 2-4 5l2 6c3 4 8 6 7 12 0 5-6 7-11 7zm22 74l-7-2-8-1c-5-2-9-4-12-8s0-9 1-14c2-4 4-9 8-11 5-3 10 1 14 3 4 3 9 6 10 11 2 5 5 8 3 14-1 5-4 8-9 8zm-66-56c-1-6 1-16 9-18 5 0 9 3 13 5l5 4c2 1 3 5 3 7 2 5 3 10 0 15a14 14 0 01-12 7c-4 0-9-1-13-4-4-5-5-10-5-16zm79 12c0 3-2 7-6 8-3 1-6-2-9-4l-8-10c-3-3-6-5-5-9 0-7 9-9 14-6l8 10c3 3 6 6 6 11z"/>
  <path class="centre" d="M123 751c-7-1-15-1-19-7-5-7-5-15-2-22 4-8 9-15 15-21 6-5 14-8 22-10l12-4 5-3 6 1 5 1 5 4 10 8 7 9c2 4 4 7 4 11-1 7-5 13-12 16-8 5-17 9-27 12l-31 5z"/>
  <path d="M122 739c5 0 10-2 14-3l17-2c8-1 17-1 23-6l4-5c0-2-2-4-3-5-2-4-3-9-6-12-3-4-8-2-13-3-4-1-5-4-6-8s-2-8 1-11c3-4 7-6 11-9 7-5 13-12 22-15 7-2 16 0 23 5 2 3 6 7 6 11l-2 5 1 7-5 13c0 5 3 8 5 12v12c-1 5-6 6-10 7l-11 5c-3 2-1 7-1 10-1 5-5 7-8 9l-13 7c-10 4-21 2-32 2s-22 0-33-2c-8-1-16-3-20-11-2-5-2-10-1-15 2-5 2-11 5-15 4-9 12-15 20-21 5-4 6-17 15-13 4 1 4 7 3 10l-6 13a45 45 0 01-6 14c-2 3-7 7-6 11s9 3 12 3z"/>
  <path class="centre" d="M24 651c0-6-1-11 1-17 1-4 5-6 9-8 11-3 22-1 30 6 8 6 11 15 6 23-4 9-14 14-24 14-5 0-11 0-15-4-4-3-9-9-7-15z"/>
  <path d="M31 682c1-3-2-6-2-8-1-3-1-6 1-8 1-3 3-3 5-6l7-4c5-2 13-6 15-11 1-2-1-4-3-5l-8-3c-2-2-6-4-9-3l-8 4-10 5c-3 1-6 3-9 2l-8-4-7-3c-5-3-7-9-6-15 2-6 6-10 12-12l10-1c4-2 7-2 11-2l9 4h9l7-6c4-2 7-2 11-2a54 54 0 0136 20c5 6 4 14 5 21s1 14-4 19l-9 6-9 8c-3 2-6 5-10 6l-9 4c-6 3-10 7-17 6-6-1-10-6-10-12z"/>
  <path class="centre" d="M1224 651c0-6-1-11 1-17 1-4 5-6 9-8 11-3 22-1 30 6 8 6 11 15 6 23-4 9-14 14-24 14-5 0-11 0-15-4-4-3-9-9-7-15z"/>
  <path d="M1231 682c1-3-2-6-2-8-1-3 0-6 1-8 1-3 4-3 5-6l7-4c5-2 13-6 15-11 1-2-1-4-3-5l-8-3c-2-2-5-4-9-3l-8 4-10 5c-3 1-6 3-9 2l-7-4-8-3c-5-3-7-9-6-15 2-6 7-10 12-12l10-1c4-2 7-2 11-2l9 4h9l8-6c3-2 7-2 10-2a54 54 0 0136 20c5 6 4 14 5 21 2 7 1 14-4 19l-9 6-9 8c-3 2-6 5-10 6l-9 4c-6 3-10 7-17 6-6-1-10-6-10-12z"/>
  <path class="centre" d="M379 891c-5 0-11 0-16-2-5-1-10-4-14-7-7-6-11-14-10-24 0-5 3-10 5-14 3-5 5-9 10-11l13-7 11-9c8-5 18-2 27 0 10 2 21 4 30 9 4 2 7 5 9 9 2 5 1 9 2 14 1 4 5 6 5 11 0 4-3 9-7 11-4 4-10 6-14 9-5 3-10 6-16 7l-20 3-15 1z"/>
  <path d="M459 870c1 7-2 13-6 18l-6 7c-2 2-6 2-9 3-7 1-14 3-21 2-3 0-5 0-8 3l-7 5c-7 3-15 3-22 3-6 0-13-1-20-4a21 21 0 01-8-6l-5-6c-2-2-6-2-8-1h-11c-5-1-9-4-9-10 0-3 1-5 3-7l4-9c3-7 6-12 11-18 2-2 4-4 8-4 3 0 7 3 10 5 5 2 11 2 14 7 2 4 1 8 0 11 0 1-3 6-2 7 1 2 4 1 6 1l11-1c7 0 13 3 20 2 4 0 8-1 11-3s4-4 5-8c2-7 6-13 12-17 7-5 14-4 20 1 6 4 9 12 7 19zm-101-45c0-5 1-9 4-13s4-8 5-13c3-8 6-18 13-22 8-4 17-1 24 1l6 3 4 5c3 3 8 3 10 7s3 7 8 9l5 2 4 5c3 3 6 4 7 9s-2 8-5 10l-8 9c-5 3-10 4-15 2l-11-7c-4-2-10-2-15-1-8 1-15 6-24 5-6-1-13-4-12-11zm174-61c-4 0-7-2-10 0l-8 4c-5 2-12 1-16-3-5-5-5-12-2-18l5-10 5-10c3-5 7-12 13-15a15 15 0 0111-2l9 5 10 6 9 3c5 4 7 8 6 15-2 7-6 15-11 21s-15 3-22 4zm-386 343c0-5 2-11 7-13h9c4 1 7 2 10 5 2 2 6 3 9 4l10 7c6 3 13 4 18 10 3 3 5 6 6 10 1 3-1 6-3 10-3 6-6 10-14 11-4 0-7 1-11 3l-11 4c-8 2-12-2-15-9l-2-13c0-4-2-8-4-11-4-6-10-11-9-18zm370-174c-1-4 0-8 1-12s4-7 7-10c2-3 4-6 8-7l6-1 5-4c4-2 7-2 11 0 3 2 6 2 9 1 4-1 7-3 11-3s7 2 9 6c3 5 2 13 0 18l-7 9-8 10c-4 4-9 10-15 8-3-1-6-4-6-7s0-5-3-2-3 6-5 10a9 9 0 01-10 4c-4-1-6-5-8-8-3-3-7-7-6-12z"/>
  <path class="centre" d="M207 921c0-11 4-23 15-27 6-2 11-2 17 0s11 5 14 10c6 7 12 19 7 28-2 5-8 9-12 12-5 4-11 4-17 3-7-2-13-3-18-8s-5-12-6-18z"/>
  <path d="M206 899c8 0 11 4 13 10 1 3 3 5 3 9-1 4-2 6 0 10l6 6c3 2 7 1 10 3 6 2 8 7 6 12-1 7-4 9-11 8-7 0-15-1-22-3-6-2-11-6-16-10-4-3-9-6-10-12-1-4 1-8 2-11l4-12c3-5 8-11 15-11zm17-1c0-5 1-10 6-12s11 0 17 0l18 6c4 3 10 5 12 9 3 6 1 13 0 19-2 5-5 11-9 15-4 3-10 5-15 2-4-3-4-8-6-12-3-6-8-7-13-10l-8-8c-2-3-2-6-2-9z"/>
  <path class="centre" d="M535 1096c-5-2-10-2-13-7-1-1 0-4-2-5h-10c-6 0-11-1-15-5-5-5-3-12-1-16 4-7 9-8 16-9 7-2 15-1 22 0l23 1c2 1 5 2 6 5l2 3 2 5c1 4-2 6-4 8l-10 9-9 8-4 2-3 1z"/>
  <path d="M501 1038c4 1 8-1 12-2s9-2 14-1 12 3 15 8c2 2 2 5 2 9 0 3-1 8-5 9-3 1-6 4-9 3-5 0-7-3-10-6l-4-2-5 4c-3 2-6 4-5 8 1 3 3 6 3 10-1 4-3 8-6 11-7 7-11-2-18-4-4-1-9 0-13-2-3-2-3-6-3-9l2-6 1-7c1-5 4-7 8-10l8-9c3-3 8-5 13-4zm50 68c-6-1-12 0-17-2-7-3-7-8-3-13s7-10 12-13c2-2 4-3 4-6v-10c1-7 5-12 11-15 6-2 13-1 18 3 4 3 10 8 10 15-1 6-6 11-11 14l-9 4c-3 3-2 6-2 10-1 3-2 7-4 9-3 3-6 4-10 4z"/>
  <path class="centre" d="M598 1021c-9-2-22-2-28-11-3-4-1-10-1-14 1-5 1-11 3-16 1-5 6-8 9-12l6-5 7-4c4-4 7-8 12-11 4-2 8-3 11-7l8-12c4-4 8-7 14-7l7 1 8 3c3 0 5 2 7 3l8 4 5 5c2 3 2 6 1 9-2 6-1 12-2 18 0 6 1 12-2 18-1 5-5 10-9 14a22 22 0 01-14 8l-9 1a34 34 0 00-8 4c-5 4-11 6-17 8l-10 2-6 1z"/>
  <path d="M688 934l1 13 4 12c1 4 0 8-1 12s-3 5-6 7c-2 1-6 3-5 6l2 5v6c0 4-2 7-4 9l-7 7c-3 3-5 4-9 4l-14-1-6-1-5-1c-4 0-7 5-9 7-5 5-13 10-19 13-7 4-15 6-22 4-6-1-13-4-14-10-2-7 4-14 10-16l12-2c4-1 8-2 12 0 3 1 4 3 7 2 4-2 6-6 8-9l7-7c1-4-1-8 2-11s7-2 10 0c3 1 4 4 8 2l7-5c4-3 4-6 4-10 1-4 2-8 1-11v-10c-1-4-1-7-5-9-3-2-7-2-9-6-3-7-1-18 7-19l5 2 5 1 12 3c6 2 12 6 11 13zm-136 88c-13 1-23-12-20-24 2-7 8-14 14-18 3-2 6-2 9 0 2 1 5 4 7 1l6-8 9-5c5-2 12-3 16 2s3 12-1 16c-4 5-10 7-16 9-4 1-5 3-6 7l-4 9c-3 6-7 12-14 11z"/>
  <path d="M619 906c5-1 9 1 13 5 3 5 8 9 8 15l-2 7-1 8c-2 5-7 6-10 10-4 3-8 8-13 8-5 1-10-2-13-5-3-4-6-9-6-14l2-7c2-2 1-3 0-5-1-6 4-11 7-16s9-7 15-6z"/>
  <path class="centre" d="M178 840l-1 15c-1 4-4 8-6 11-5 7-12 14-19 19-4 2-9 2-13 1-5 0-10-1-14-3l-10-7-4-5-4-1c-7-1-14-5-16-12v-13l4-14c4-7 11-14 18-18 4-2 8-3 13-3l15-1 7-1 5 3 6 2 4 4 6 5 5 5c3 4 5 8 4 13z"/>
  <path d="M190 838c1 7-1 13-7 18-2 2-5 2-8 2s-5-2-7-4l-8-4-9-7c-4-4-8-9-14-12-5-3-10-7-8-13 1-6 5-11 9-15 5-5 11-7 18-6 6 0 13 1 19 4 5 3 8 9 9 14 3 8 7 15 6 23zm-18 48c1 3 0 5-1 8l-2 9c-2 4-6 8-11 10-9 3-21 0-28-6l-10-13c-2-5-4-11-2-17l4-6 6-4h8l10 2c6 1 13 3 18 6 5 2 9 5 8 11zm-56-65v10c0 3 1 6-1 8-1 2-3 2-5 3l-4 5c-2 3-5 9-10 11-4 2-10-1-13-4-4-3-8-7-7-13l2-7 3-10c3-9 9-20 18-23 5-2 11-1 14 3 4 5 3 12 3 17z"/>
  <path class="centre" d="M309 605l17 1c4 1 9 1 12 4 4 2 9 3 11 7 3 4 3 8 3 13l-2 16c-2 5-1 10-5 15l-10 9a50 50 0 01-12 8c-10 4-19 10-30 8-10-1-20-7-30-11-4-1-10-3-13-6l-4-11c-2-4-3-8-2-12 1-5 2-10 5-14 3-5 7-9 11-12s9-5 14-6l16-7c6-2 12-2 19-2z"/>
  <path d="M313 709l-5-1-3-2-5 1-7 1c-8 1-17-1-24-6-5-4-9-10-6-17l7-9 8-10c4-4 11-7 17-4 3 1 5 3 6 6 1 1 3 6 5 6 2 1 4-4 6-5 3-3 7-4 11-5 6-1 12 0 15 6 1 3 2 8 0 12l-4 5-3 5-8 12c-3 3-6 5-10 5zm-84-60c-1-7 3-13 7-17a74 74 0 007-9l5-8c3-4 10-6 14-2 3 3 1 9 4 12 2 3 4 4 4 8 1 4 0 8-1 12l-2 8-4 9-8 17c-4 4-8 10-14 7-5-2-7-8-8-14-1-8-5-15-4-23zm116-49c6 0 11 2 15 6 3 4 4 9 5 14 2 12-3 24-10 33-6 7-17 4-22-1-4-4-4-9-7-13-3-5-7-10-5-16l5-8 4-9c3-5 9-6 15-6zm-42-15c10 0 19 4 20 14l-1 10c0 2 1 5-1 7-3 5-9 6-14 6-6 0-11 0-17 3-4 3-7 7-13 6-5 0-5-4-5-8l1-7 3-10c4-12 15-21 27-21zM95 933c-1-5 3-9 7-12 3-2 8-6 13-5l7 2 9 3c6 2 11 4 15 7 5 3 7 7 5 12-2 4-6 9-10 11l-6 1c-2 2-3 4-5 4-5 2-11 0-16-1-10-3-19-11-19-22z"/>
  <path class="centre" d="M369 705c0-5 0-11 4-16l7-7c3-3 3-6 5-9 2-6 7-9 12-12 6-3 10-9 15-14l12-16c3-5 7-10 13-12 6-1 14 0 20 2 6 1 11 5 16 8 6 4 12 7 16 13 2 2 3 5 3 8l4 7c3 5 0 12 0 17-1 6 0 12-4 17l-6 7c-3 2-4 5-5 8l-6 7-3 2-4 4c-4 4-10 5-15 8l-19 11c-8 4-15 4-22 0a44 44 0 01-9-6l-8-6c-7-1-15 1-20-4-6-4-6-11-6-17z"/>
  <path d="M408 714c0 7-2 14-7 19l-7 8-6 8c-5 4-10 7-17 6-5-1-10-4-12-8l-4-7c-1-3-3-4-6-6-5-5-4-11-2-17 3-6 7-10 12-12l18-11 5-2 4 2 5 2 5 3 9 5c3 2 3 6 3 10zm-26-56c-1-7 2-15 5-22l7-8 4-10c6-12 25-20 36-10 9 7 3 21-1 30l-6 9-8 8c-5 5-7 12-12 17-4 6-13 7-19 3-6-3-6-11-6-17zm88 76c0 7 0 13-5 19-5 4-10 8-17 9-6 1-12-1-19-3-3-2-8-3-9-7-1-3 1-6 2-9l2-10 5-7 4-10c2-6 5-11 11-14 5-2 12-1 16 4l4 8 4 9 2 6v5zm42-65v8l-5 7c-4 4-4 10-9 14-4 3-9 7-15 7-5-1-9-5-10-10v-15l2-13c2-9 8-17 18-16s21 7 19 18zm-69-36c0-8 3-17 9-22 7-5 18-1 24 4 3 2 8 4 10 7 3 5 0 11-1 16-1 4-1 9-5 12-4 2-9 2-13 1l-16-7c-4-3-8-6-8-11z"/>
  <path class="centre" d="M-55 910c4-4 8-8 14-8l11 1 9-2c6-2 12-1 18 1 6 3 13 2 20 2l20-1c6-1 12-1 18 3 5 4 8 10 11 16 3 5 4 11 4 18 1 6 3 13 1 19l-4 9c-2 2-2 4-3 7-2 5-9 8-13 11-5 3-9 7-15 8l-10-1-9 2H8l-4-1h-5c-6 0-10-5-16-7l-21-6c-8-4-12-9-14-18l-1-11-1-9c-4-6-10-11-11-18 0-7 5-11 9-15z"/>
  <path d="M-37 945c-5 5-12 7-19 8l-10-1h-10c-7-1-12-3-16-8-3-5-3-10-2-15l4-7v-9c0-7 5-11 12-12 5-2 11-2 17 1 6 2 13 3 19 6l5 3 1 4 2 6 1 6 2 9c0 4-3 6-6 9zm26-56c5-6 12-9 20-10l10-1c4 0 7-2 11-3 13-3 31 6 31 21 0 11-14 16-24 18l-10 2-12-1c-6-1-13 2-20 2s-14-5-15-13c-1-6 4-11 9-15zm-1 117c-5 4-10 8-17 7-6 0-13-1-18-6-5-4-7-10-10-16-1-4-3-9-1-12s5-3 8-4l9-5 9-1 10-3c6-2 12-4 17-1 6 3 9 8 8 14l-3 9c-2 3-4 6-4 9l-4 5-4 4zm77-11l-6 5-8 1c-6 0-10 3-16 2s-12-2-16-7c-2-4-2-10 1-14s7-7 11-9l11-7c9-5 18-6 25 3 5 8 8 20-2 26zm-17-76c5-5 14-9 22-7 9 2 12 12 13 20 1 4 2 9 1 12-2 6-8 7-13 10-3 2-7 5-12 4-4-1-7-5-9-9-3-5-5-11-6-17 0-5 0-10 4-13z"/>
  <path class="centre" d="M515 804c10-1 19 3 28 5 8 2 15 4 20 11l7 10c2 2 5 5 5 9 0 3-2 6-5 8l-12 7-12 6-9 8c-7 5-17 5-25 5-9 0-17 0-23-8-5-7-4-16-5-24v-15c1-5 5-9 8-13 6-8 14-9 23-9z"/>
  <path d="M466 818c1-9 1-20 10-25 5-3 11-3 17 0l8 5 8 4c5 3 10 8 8 14-1 3-3 4-5 5l-6 7-5 2c-3 1-3 4-5 5-3 5-9 7-14 7-11-2-16-14-16-24zm8 70c1-7 2-13 5-18l8-12 6-2h9c5-2 10-4 15-4 6 1 11 4 11 10l-2 7-4 8-4 6-3 5-6 2-8 4c-5 4-10 8-17 6-7-1-10-6-10-13zm74-28c-1-5 2-9 4-13 3-4 6-9 10-12 3-3 7-5 12-4s9 4 12 8c5 7 3 17 0 24a23 23 0 01-19 14c-6 1-11-1-16-5-3-3-4-8-4-12zm-6-63c10 0 20 0 28 5 3 3 6 7 5 11l-3 7-4 7c-2 4-5 5-10 4s-10-3-16-3c-4-1-9-1-13-5-2-2-3-7-3-11 0-8 7-17 16-15z"/>
  <path class="centre" d="M679 875c-11-1-23-4-32-9s-17-10-22-19c-3-4-4-10-6-15-1-5-2-11-5-15-3-3-7-6-8-11l-2-16c-1-10 6-15 15-16 6 0 11 2 16 4l17 2c6 1 11 4 16 6 5 3 8 5 11 10l16 31c2 6 4 11 8 16 3 5 7 9 5 15-4 11-19 16-29 17z"/>
  <path d="M720 867c0 5-1 12-5 16-1 2-4 3-6 4l-6 7c-9 6-22 3-31-3l-16-10c-6-2-12-1-19-1l-17 1c-3 1-9 2-11-2-3-4 0-11 1-15 1-6 0-13 2-19 0-5 1-12 5-16 4-3 11-6 16-4s6 6 7 11c0 5 1 11 3 16 0 3 1 4 4 4h9c6 1 10 6 16 8 1 1 5 2 6 1 3-2 3-7 4-10 3-5 7-10 13-12 7-3 12 0 17 4l6 8c2 4 2 8 2 12zm-68-97c4-1 8 1 13 1 4 0 7 1 11 3 7 4 13 8 19 14 3 3 5 7 5 11l2 13c2 8-4 15-12 17-5 2-16 2-20-3-4-4-1-12-2-17-1-3-4-15-8-14l-4 2-6 2h-12c-6-3-8-11-5-16l4-5 4-5c3-3 7-4 11-4zm-42-5c5-1 9 1 12 4 3 5 1 10 0 15l-3 4-2 6c0 6-4 10-6 15-2 4-6 7-11 5-4-2-5-6-5-11l-1-6c-2-3-4-3-7-4-5-3-4-8-2-12 2-5 5-10 9-12 5-3 11-5 16-5z"/>
  <path class="centre" d="M39 1137c-11 0-22-3-32-9-9-4-17-9-22-18l-6-15c-1-5-2-11-5-15-3-3-7-6-8-11l-2-17c-1-9 6-14 15-15 6 0 11 2 16 3l17 3c6 1 11 4 17 6 5 2 7 5 10 10l16 31c2 6 4 11 8 16 3 5 7 8 5 15-4 11-19 15-29 16z"/>
  <path d="M80 1130c0 5 0 12-5 16-1 2-4 3-6 4-2 2-3 5-6 6-9 7-22 4-30-2-6-4-10-8-17-10-6-2-12-1-18-1-6-1-12 0-18 1-3 0-8 1-11-2-3-4 0-11 1-15 2-7 1-13 2-20 1-4 2-11 5-15 4-3 11-6 16-4 5 1 6 6 7 11s1 11 3 16c1 2 1 4 4 4h9c6 1 10 5 16 8 2 0 5 2 7 0 2-1 2-6 3-9 3-6 8-10 14-13 6-2 12 1 16 5l7 8 1 12zm-68-98l13 2c4 0 7 0 11 3 7 4 13 8 19 14 3 3 5 6 6 11l1 12c2 9-4 15-12 18-5 2-16 2-20-3-4-4-1-12-2-17-1-3-4-15-8-14l-4 2-6 2c-3 1-8 1-12-1-6-2-8-10-5-16l4-4 4-5c3-3 7-4 11-4zm-42-5c5 0 9 1 12 5s1 10 0 14l-3 5-2 6c0 5-4 10-6 15-2 4-6 7-11 5-4-2-5-7-5-11l-1-6c-2-3-4-3-6-4-5-3-4-8-3-12 2-5 5-10 9-13 5-2 11-4 16-4z"/>
  <path class="centre" d="M637 716h-19l-16 4c-7 0-16-1-21-7-2-4-1-10-4-14-2-5-5-9-6-15-1-5-4-10-4-16 0-5 3-10 6-14 4-4 9-6 13-8 4-3 9-5 14-6l17 2 18 3 15 5c6 1 10 4 16 7 4 2 10 2 13 6a591 591 0 01-1 32c-1 6-2 12-6 15-4 4-9 5-14 5l-21 2v-1z"/>
  <path d="M656 739c-6 0-11-1-16-4s-6-7-10-11c-2-3-6-8-10-7-5 1-7 6-10 8-3 3-8 5-10 9-1 3-2 8-6 10-11 5-14-11-14-18 0-5 0-10 2-15 3-5 8-8 12-11 7-5 18-10 25-3 3 3 1 7 2 10 1 4 5 5 8 2l2-4 4-3c5-1 10 1 15 2 5 2 12 1 17 3 5 3 9 8 8 13l-1 8c-1 3-1 5-3 7-4 4-10 3-15 4zm-2-81c0-3 0-6 2-7 2-2 5-3 7-2 6 0 10 4 15 7 2 0 5 1 6 3l2 5 4 7 2 9c2 5 5 10 3 16l-4 7-5 5c-4 1-12 3-14-1-2-2-2-5-3-7l-2-9c0-6 1-12-3-16-6-5-10-10-10-17zm-42 5c-3 1-5 0-8-1-1-1-2-4-4-4l-5 1c-3 1-6 0-8-2-4-3-6-8-3-13 3-4 8-7 11-9 5-4 9-4 15-3l17 2c4 0 9 0 12 4 2 3 3 9 1 13-1 5-7 6-11 7-6 2-11 6-18 5zm-69 5c-1-15 28-34 35-14 1 4-2 9-2 13 0 6 0 11-2 16-2 8-8 13-16 9-5-3-9-5-12-9l-3-15z"/>
  <path class="centre" d="M1 559c-6 3-12 8-19 6-4 0-7-2-10-3l-12-5c-13-8-19-25-19-39 0-6 1-13 6-18 5-4 14-5 21-6s13 2 19 5c3 1 7 3 9 6l6 11c3 8 10 16 10 25-1 7-6 13-11 18z"/>
  <path d="M-59 567c-6-7-12-15-13-25v-24c0-7 1-17 8-20 3-2 7-1 10-1 5 1 7 3 8 7 4 8 6 15 4 23-3 8-1 13 5 19 2 3 5 6 9 7l7 2 4 4c5 2 14 11 8 17-3 2-8 2-12 3-4 2-8 2-12 2l-15-3c-5-3-8-7-11-11zm49-89c4 3 5 8 7 13 2 4 4 8 4 13 1 6-4 7-9 9-2 1-4 2-6 1l-3-6-5-2-7-3-14-11c-3-3-6-8-5-12s5-7 8-9c5-2 10-4 16-3 5 1 12 6 14 9zm33 81c-4 4-9 3-14 2-6-2-11-1-14-7-3-5-2-11-2-16 0-6 1-10 6-13s10-4 15-2l8 4 5 8c4 3 8 5 8 10-1 6-8 11-12 14z"/>
  <path class="centre" d="M200 1074l-9-3-6-6c-3-5-1-11 1-16 5-10 16-13 26-15l10-2c3-1 6-3 9-2 2 0 4 2 6 4l2 3 1 4c1 1 3 2 3 4 1 3-1 5-2 7l-12 10a62 62 0 01-29 12z"/>
  <path d="M171 1075c0-4 2-5 5-7 1 0 3-1 2-3h-4c-7 1-13-5-11-12 1-3 3-5 6-7l12-7 10-4c3-2 8-4 11 0 3 5-2 11-5 15-2 2-5 3-3 6 2 4 5 3 8 2 7-1 12 1 14 8 1 3-1 5-2 8-2 3-3 7-6 10-3 2-7 5-11 5l-6-3-3-3c-2-1-4 1-5 1a13 13 0 01-7 0c-4-1-4-5-5-9zm88-40c-1 4 1 9-1 13-1 3-3 4-5 6l-5 5c-4 2-9 2-12-2-3-3-3-5-8-5-3 0-8 1-11-2-2-3-1-8 0-11 2-5 6-7 9-9l11-10c9-4 23 4 22 15z"/>
  <path class="centre" d="M631 1139c-11 1-21-1-30-9-3-2-7-4-8-8v-18c0-5 1-9 5-13 4-3 8-7 13-9l12-10c4-4 9-4 13-6 5-2 8-7 13-9s11-3 16-3c11 0 22 1 31 6 4 3 8 6 10 11l1 8v9c-2 8-5 18-12 23-5 3-11 3-16 5-6 3-10 7-14 11s-8 8-14 10c-6 3-13 2-20 2z"/>
  <path d="M723 1070l-2 13c0 3 0 7-2 10l-6 9-5 12c-3 6-11 10-18 12s-15 0-21-4c-2-2-4-5-3-7l3-3 3-3c0-3 1-5 4-7s8-2 12-3l9-1c3-1 4-5 4-8l-3-9-4-10c-5-5-11-5-17-6l-10-4c-3-1-5 0-7 3-5 6-7 13-12 18l-7 7c-3 2-7 2-11 2h-11c-3 0-7 0-8-3s2-8 2-11l5-10c4-6 11-8 16-13l8-6 8-7c7-6 16-5 25-7 8-1 16 3 23 6 12 6 25 16 25 30zm-139 69c-8 1-15-6-16-14l1-2 1-7 5-5c3-3 5-7 9-8 5-2 10-2 15-2s11 0 15 2c7 6 2 15-3 20-4 3-9 6-12 10-5 4-9 7-15 6zm57-18c7 0 23 2 24 11 1 4-3 7-6 10l-4 4c-3 2-5 2-8 2l-15 2c-5 0-11-1-16-3-3-1-7-2-8-6l3-9c3-3 9-4 13-6 6-3 11-5 17-5z"/>
  <path class="centre" d="M398 1133c-11-1-22-2-31-6a35 35 0 01-17-22c-2-5-1-10-4-14-2-4-3-9-2-13s2-8 5-12c2-3 6-4 10-5l15-4c5 0 9 1 13 4l25 8c12 4 27 12 26 27 0 5-3 9-5 14-2 4-3 9-6 11-4 4-9 6-14 9a35 35 0 01-15 3z"/>
  <path d="M385 1122c4 0 9 1 13-1s7-5 10-8c5-6 15-6 20-1 3 3 5 6 5 10 1 4 0 9-2 13l-5 5-6 1-4 4-8 3c-4 2-9 2-13 2s-9 1-12-3c-2-2-3-8-5-9-4 0-8 5-10 7-4 2-8 3-11 0-5-3-5-7-5-11 0-10-2-20 2-29s16-9 20 0c1 2 2 5 1 8l1 8c2 2 6 1 9 1zm-58-54c0-7 0-15 5-20 3-2 7-4 11-3l6 3 7 3c1 1 4 6 6 6l1-3 1-7c4-7 13-9 19-7 5 1 9 4 13 6 3 2 8 3 10 7 3 8-4 17-11 21-8 4-16-1-23-5-2-2-6-5-9-2l-1 5-4 7c-4 7-13 15-21 10-7-4-10-14-10-21zm83 10c0-5 1-9 5-11 5-1 13-4 18-1 5 2 10 6 14 11 3 5 4 9 3 15-1 5-3 10-9 12-5 2-10 0-15-3-8-5-17-13-16-23zM111 1077c-4 0-10 0-12-5-2-3 0-8-5-9-4-1-6-3-6-7 0-5 3-8 7-10s9 0 14 0h16c4 0 9 0 11 5 1 3-2 8-3 11 0 4-2 8-5 10l-8 3-9 2z"/>
  <path class="centre" d="M496 1111l10 2c4 1 6 3 9 5 5 1 14 2 16 8s3 11-1 16l-14 8-8 4-11 1c-7 1-13 2-19 0-10-4-19-13-13-23 7-11 18-20 31-21z"/>
  <path d="M472 1164c-4 0-8-2-11-4-4-2-9-2-13-5-8-3-5-11 2-14 3-1 5-2 6-6 0-4 3-7 3-11 2-7-1-15 8-18 7-3 15-1 21 3 3 2 7 4 8 7 0 3 0 7-2 10s-6 2-10 2c-4 1-6 4-8 7s-5 7-2 10c1 2 3 2 5 2 3 0 11-1 11 5-1 7-12 12-18 12zm64-6c-3 0-3-2-6-3-2-1-5 0-7 1-5 2-11 5-16 4-4-1-8-6-4-9 1-2 4-3 6-4l7-7c1-2 2-3 1-5-2-3-5-4-6-7-2-3-3-7 0-10 4-3 12 2 15 4l14 11c5 4 9 9 7 15-2 4-6 10-11 10z"/>
  <path class="centre" d="M308 1020c-5 0-9-1-13-3l-14-3c-4-1-7-2-10-6-2-3-6-8-7-12s0-8 2-12l4-14c5-8 11-15 19-20 15-9 34-8 49 0 7 3 13 10 16 17l5 12c2 5 0 10-1 15-3 8-11 12-18 16-10 5-20 8-31 10h-1z"/>
  <path d="M283 955c-1-4 2-6 4-10l2-5 5-5c5-6 2-15 8-21 5-5 12-3 15 2 1 3 1 5 5 5l12 3 11 8 11 8c2 3 4 5 4 9s-3 8-5 11c-3 5-8 12-15 10-3 0-6-2-7-5s-1-7-4-9l-6-1h-7c-5 0-10 2-14 5-7 3-19 6-19-5zm96 38c0 11-10 23-20 24h-10l-9 2c-5 1-13 2-16-4-4-10 11-18 17-21 3 0 5-1 6-3 2-2 2-4 2-6 0-6 3-9 8-10 11-2 21 7 21 18zm-81 42c-8-1-22 1-26-7-2-5 0-12 4-16 2-3 6-3 9-4 5 0 7-1 8-6s3-13 9-14c5-1 13 4 13 9 0 6-13 15-8 20l8 4c2 3 2 7 0 10-3 6-12 4-18 4zm-27-66c5 1 9 4 12 8l2 8c0 2-2 2-4 4l-2 8-3 9c-1 5-2 8-8 8-6-1-11-3-15-7-4-3-2-9 0-13l8-16c2-5 5-9 10-9z"/>
  <path class="centre" d="M293 847l-38-5-17-3c-6 0-10-2-15-6a22 22 0 01-7-13l-1-8v-9c1-10 9-18 17-23 9-6 17-15 27-19 5-2 11-4 17-3l15 5h16l5 3 5 3c4 5 0 10 1 15s5 8 7 13l-1 10-4 6c-3 4-4 10-4 16 0 5 0 9-4 12-6 4-12 6-19 6z"/>
  <path d="M204 795c0-7 3-14 9-20l10-7c3-2 4-6 7-9l6-9c2-3 4-8 8-10 6-4 14-3 21-1 6 1 12 5 13 12 1 4-2 8-3 12l-2 11c-3 5-7 12-13 13-3 1-5-2-8-2-4 0-8 1-11 3l-11 8-10 8c-7 6-16 1-16-9zm113-49c6 0 10 3 14 8s8 9 11 15c3 7 2 14 0 21-2 5-3 11-7 16-4 4-10 8-16 5-5-2-7-8-11-11-4-4-10-4-14-7-2-2-2-5-3-8v-10c2-13 11-29 25-29zm-42 78c6-1 12 2 17 4s10 4 13 8c4 4 5 10 2 16l-4 6-6 8c-3 4-8 6-13 5-6-1-9-6-14-9-5-2-10-2-15-5-3-3-3-8-2-12 2-10 10-21 22-21zm-33 6c0 4 1 6-1 9a21 21 0 01-6 6c-4 3-10 5-14 5-5 1-9-2-12-5-3-5-3-9-2-14 3-8 8-17 18-16 8 0 19 5 17 15z"/>
  <path class="centre" d="M149 655c-5 0-9-3-12-7l-9-14c-2-4-4-9 0-13 3-4 8-6 13-7 10-3 21 4 29 10 3 3 7 6 8 10 2 5 1 10-3 13-7 6-17 7-26 8z"/>
  <path d="M159 621c-7 6-15 4-22 1-6-3-10-7-9-14s8-12 15-10l8 5 9 6 2 4v3h4l7 1 19 8c5 2 11 6 11 12s-6 6-11 7l-9 2c-4 2-8 2-12-1-4-2-7-6-8-10l-3-6-1-8zm-36 20c1-4 0-10 4-12 5-3 9 4 13 7s10 4 12 9c1 3 1 4 4 5 2 0 5 1 5 4 1 2-1 5-2 7l-5 6c-4 2-11 1-15 0-12-3-16-15-16-26z"/>
  <path class="centre" d="M1157 86c-5 0-9-4-12-7-3-5-7-9-9-15-2-4-4-9 0-12 3-4 8-6 12-8 11-3 21 5 29 11 4 2 8 5 9 10 2 4 0 9-3 12-7 6-18 8-26 9z"/>
  <path d="M1167 52c-7 6-15 4-22 0-6-2-11-7-9-14 1-6 8-12 15-9l8 5 9 5 2 4v3h4l7 1 19 8c5 3 11 7 11 13-1 6-6 6-11 6l-9 3c-4 2-9 1-12-1-4-2-7-6-9-10l-2-7-1-7zm-36 19c0-4 0-9 4-11 5-4 9 4 13 6 4 3 10 4 12 10 1 3 1 3 4 4 2 1 5 2 5 4 1 3-1 5-2 7l-5 6c-5 2-11 2-15 0-12-3-17-15-16-26z"/>
  <path class="centre" d="M-43 86c-5 0-9-4-12-7-3-5-7-9-9-15-2-4-4-9 0-12 3-4 8-6 12-8 11-3 21 5 29 11 4 2 8 5 9 10 2 4 0 9-3 12-7 6-18 8-27 9z"/>
  <path d="M-33 52c-7 6-15 4-22 0-6-2-11-7-9-14 1-6 8-12 15-9l8 5 8 5 3 4v3h4l6 1 20 8c5 3 11 7 11 13-1 6-6 6-11 6l-9 3c-4 2-9 1-12-1-4-2-7-6-9-10l-2-7-1-7zm-36 19c0-4 0-9 4-11 5-4 9 4 13 6 4 3 10 4 12 10 1 3 1 3 4 4 2 1 5 2 5 4 1 3-1 5-2 7l-5 6c-5 2-11 2-15 0-12-3-17-15-16-26zM120 1112l-18-2c-4 0-9-1-12-4-4-3-6-8-2-12l5-6c2-1 3-3 5-3l7 2 9 1c5 0 10 1 14 4s8 8 5 13c-3 4-7 7-13 7z"/>
  <path class="centre" d="M440 1026c-10 0-17-6-24-12l-10-9c-3-4-2-9-2-14 1-6-1-11-2-17-1-5 0-11 2-16 2-4 5-8 10-10l6-2 7-4c4-2 9-6 13-6l15 3c5 2 10 4 16 4 5 1 11 1 16 3 5 1 9 3 12 7l4 6 5 5c2 5 2 10 0 15l-9 10-12 13-14 8-17 11c-5 3-10 5-16 5z"/>
  <path d="M434 1045c-4 0-9 0-12-3-4-5-2-11-1-16 0-4-1-9 2-12 4-4 10 0 13 3 5 4 8 4 12-1 2-2 3-4 3-7l-2-8c0-4 1-9 5-11s8 2 11 5c4 3 10 4 14 2l5-5 4-7 8-14 5-6 8-1c10 1 18 12 12 21l-5 7-5 8c-3 5-6 6-11 8l-8 4-10 1-8 5-8 6c-6 4-11 10-15 15l-6 5-11 1zm-51-84c0-11 5-18 15-22 7-2 13-3 19-6 5-2 10-3 14 0 7 5 5 15 2 21l-3 5c-2 2-3 2-6 2-5 0-11 5-15 9-3 2-5 5-9 6-3 1-6 1-9-1-6-2-10-7-8-14zm64-16c-1-8 6-18 13-22 8-4 19 0 26 4l10 7c3 4 2 9-1 13-5 7-14 13-23 11l-18-4c-4-2-7-4-7-9zm-52 77l2-8 1-9c0-5 2-11 5-15 4-6 17-9 21-2v16c-1 5-5 9-8 13s-7 8-12 10c-4 1-9 0-9-5z"/>
  <path class="centre" d="M600 598c-10 1-18-5-25-11l-9-9c-3-5-3-10-2-15 0-6-2-11-3-16-1-6 0-11 3-16 2-4 5-9 9-10l7-3 7-4c4-2 8-5 13-5 4 0 10 1 14 3l16 4c6 0 11 0 16 2 5 1 9 4 12 8l5 5 4 6c2 4 3 10 0 14l-8 10-12 14-15 8-16 11c-5 3-11 4-16 4z"/>
  <path d="M594 618c-4-1-10 0-13-4-4-4-1-11-1-16 1-3-1-8 2-11 4-4 10 0 13 3 5 3 8 3 12-2 2-2 4-4 3-7l-1-7c-1-4 0-9 4-11 5-3 8 2 11 4 4 3 10 4 15 2l5-5 4-7 7-14 6-5c2-2 5-2 8-1 10 0 17 12 11 21l-5 6-4 8c-3 6-6 7-12 9-3 0-5 2-8 3l-9 2c-4 1-6 3-8 5l-9 5c-6 4-10 10-15 15-2 2-3 4-6 5-3 2-7 1-10 1zm-52-84c0-11 6-18 16-22l18-7c5-1 10-3 15 0 6 5 4 15 1 21l-3 5c-2 3-3 2-6 3-5 0-11 5-15 8l-8 7c-3 1-7 0-10-1-5-3-9-8-8-14zm64-17c0-8 7-18 14-21 8-4 18-1 25 4l10 6c4 4 2 9-1 13-5 7-13 13-22 12l-18-5c-5-2-8-4-8-9zm-52 77l2-8 1-8c1-6 3-11 6-16 3-6 16-8 20-1v15c-1 5-5 10-7 14-3 4-7 7-12 9s-10 1-10-5z"/>
  <path class="centre" d="M9 832c-10 0-18-6-25-12l-9-9c-3-4-3-9-2-14 0-6-2-11-3-17-1-5 0-11 3-16 2-4 5-8 9-10l7-2 7-4c4-2 8-6 13-6l14 3c6 2 11 4 16 4l17 3c4 1 8 4 11 7l5 6 4 6c2 4 3 10 0 14l-8 10-12 13-14 9-17 11c-5 2-11 4-16 4z"/>
  <path d="M3 851c-4 0-10 1-13-3-4-4-1-11-1-16 1-4 0-9 2-12 4-4 10 1 14 3 4 4 7 4 12-1 1-2 3-4 2-7l-1-8c-1-4 0-9 4-11 5-2 8 2 11 5 4 3 10 4 15 2l5-5 4-7c2-5 4-10 8-14l5-6 8-1c10 1 17 12 11 21l-5 7-4 8c-3 5-6 7-12 8l-8 4-9 2c-4 0-6 3-8 5l-9 5c-6 4-10 10-15 15-2 2-3 4-6 5l-10 1zm-52-84c0-11 6-18 16-21l19-7c4-2 9-3 14 0 7 5 4 15 1 21l-3 5c-1 2-3 2-6 2-5 0-11 6-15 9l-8 6c-3 1-7 1-10-1-5-2-9-7-8-14zm64-16c0-8 7-18 14-22 8-3 18 0 26 4 3 2 7 4 9 7 4 4 2 9-1 13-5 7-13 13-22 11l-18-4c-4-2-8-4-8-9zm-52 77l2-8 1-9c1-5 3-11 6-15 3-6 17-9 20-1v15c-1 5-5 9-7 13-3 5-7 8-12 10s-10 0-10-5z"/>
  <path class="centre" d="M1175 378l1-17c1-4 1-8 4-12l7-11c4-3 9-3 13-3 6 0 11 1 16 3 5 1 11 1 15 4 4 2 7 6 9 10 4 4 7 8 9 13 4 9 9 19 7 29-1 11-7 21-10 30-2 5-3 10-7 13l-11 4c-4 2-7 3-12 2s-9-2-13-5c-5-3-9-6-13-11-3-4-4-9-6-14l-6-16c-3-6-3-12-3-19z"/>
  <path d="M1279 374v5l-3 3 1 5 1 7c1 8-1 17-5 24-4 5-11 9-18 6l-8-7-10-8c-5-4-7-11-5-17l6-6c2-1 6-2 7-5 0-2-4-4-6-6a26 26 0 01-5-11c-1-6 0-12 6-15 4-1 9-2 12 0l6 4 5 3 11 8c3 3 6 6 5 10zm-60 84c-7 1-12-3-17-7a74 74 0 00-8-7l-9-5c-4-3-6-10-2-14 3-3 9-1 13-4 2-2 4-4 7-4 4-1 8 0 12 1l8 2 9 4 18 9c4 3 9 7 7 13-3 6-9 7-14 8-8 1-16 5-24 4zm-48-116c0-5 1-11 5-15 4-3 9-4 14-5 12-1 24 3 33 11 7 5 5 16-1 21-3 4-9 4-13 7-5 4-9 7-16 5l-8-4-8-5c-5-3-6-9-6-15zm-15 42c-1-9 3-19 14-20l9 1 8 1c4 3 5 9 5 14 0 6 0 11 3 17 3 4 7 7 7 13-1 5-4 5-9 5l-7-1-10-3c-12-4-21-14-20-27z"/>
  <path class="centre" d="M1276 318c-6 0-12 0-16-4l-8-7-8-5c-6-2-10-7-13-12-3-6-9-10-14-14l-16-13c-5-3-10-7-11-13-2-6-1-14 1-20l8-16c4-6 8-12 13-16l9-3 7-4c5-2 12 0 17 1 5 0 12 0 16 3l7 7 8 5 7 5 2 4 4 3c4 4 5 11 8 16l11 18c4 8 4 15 0 23a44 44 0 01-6 9c-3 2-5 4-6 8-1 6 1 14-3 20-4 5-11 5-17 5z"/>
  <path d="M1284 280c7-1 14 2 20 6l7 7 8 7c4 4 7 10 6 16-1 5-4 10-8 13l-7 3c-3 1-4 4-6 6-5 6-11 5-17 2-6-2-10-7-12-12l-11-17-2-5 2-5 2-5 3-5 5-9c3-3 6-2 10-2zm-55 25c-8 1-16-1-22-5l-9-6-10-5c-12-6-20-25-10-36 8-8 22-3 30 2l9 6 8 8c5 4 12 6 17 11 6 4 7 13 3 19-3 6-11 6-17 6zm76-88c7 0 12 0 18 5 5 5 9 10 9 17 1 6-1 13-3 19-1 3-3 9-7 9-3 1-6-1-8-1l-10-3-8-5-10-4c-5-2-11-4-13-10-3-6-1-12 3-16l8-5c3-1 7-2 9-4l6-2h6zm-66-42h8c4 1 5 3 7 5 4 4 10 4 14 9 4 4 8 9 7 15-1 5-5 9-10 10h-14l-13-2c-10-2-18-8-17-18s7-21 18-19zm-36 69c-7 0-17-3-21-9-6-7-1-17 3-24 2-3 4-8 7-10 5-3 11 0 16 2 4 1 9 0 12 4 2 4 2 9 1 13-1 6-4 11-7 16-2 5-6 9-11 8z"/>
  <path class="centre" d="M1145 910c4-4 8-8 14-8l11 1 9-2c6-2 12-1 18 1 6 3 13 2 20 2l20-1c6-1 12-1 18 3 5 4 8 10 11 16 3 5 4 11 4 18 1 6 3 13 1 19l-4 9c-2 2-2 4-3 7-2 5-9 8-13 11-5 3-9 7-15 8l-10-1-9 2h-9l-4-1h-5c-6 0-10-5-16-7l-21-6c-8-4-12-9-14-18l-1-11-1-9c-4-6-10-11-11-18 0-7 5-11 10-15z"/>
  <path d="M1163 945c-5 5-12 7-19 8l-10-1h-10c-7-1-12-3-16-8-3-5-3-10-2-15l4-7v-9c0-7 5-11 12-12 5-2 11-2 17 1 6 2 13 3 19 6l5 3 1 4 2 6 1 6 2 9c0 4-3 6-6 9zm26-56c5-6 13-9 20-10l10-1c4 0 7-2 11-3 13-3 31 6 31 21 0 11-14 16-23 18l-11 2-11-1c-7-1-14 2-21 2s-14-5-15-13c-1-6 4-11 9-15zm-1 117c-5 4-10 8-17 7-6 0-13-1-18-6-5-4-7-10-10-16-1-4-3-9-1-12s5-3 8-4l9-5 9-1 10-3c6-2 12-4 17-1s9 8 8 14l-3 9-5 9c0 2-1 4-3 5l-4 4zm77-11l-6 5-8 1c-6 0-10 3-16 2s-12-2-16-7c-2-4-2-10 1-14s7-7 11-9l11-7c9-5 18-6 25 3 5 8 8 20-2 26zm-17-76c6-5 14-9 22-7 9 2 12 12 13 20 1 4 2 9 1 12-2 6-8 7-13 10-3 2-7 5-12 4-4-1-7-5-9-9-3-5-5-11-6-17 0-5 0-10 4-13z"/>
  <path class="centre" d="M1239 1137c-11 0-23-3-32-9-9-4-17-9-22-18l-6-15c-1-5-2-11-5-15-3-3-7-6-8-11l-2-17c-1-9 6-14 15-15 6 0 11 2 16 3l17 3c6 1 11 4 16 6s8 5 11 10l16 31c2 6 4 11 8 16 3 5 7 8 5 15-4 11-19 15-29 16z"/>
  <path d="M1280 1130c0 5 0 12-5 16-1 2-4 3-6 4-2 2-3 5-6 6-9 7-22 4-30-2-6-4-10-8-17-10-6-2-12-1-18-1-6-1-12 0-18 1-3 0-8 1-11-2-3-4 0-11 1-15 1-7 0-13 2-20 1-4 2-11 5-15 4-3 11-6 16-4 5 1 6 6 7 11s1 11 3 16c0 2 1 4 4 4h9c6 1 10 5 16 8 2 0 5 2 7 0 2-1 2-6 3-9 3-6 8-10 13-13 7-2 13 1 17 5 3 2 5 5 6 8 2 4 2 8 2 12zm-68-98l13 2c4 0 7 0 11 3 7 4 13 8 19 14 3 3 5 6 6 11l1 12c2 9-4 15-12 18-5 2-15 2-20-3-4-4-1-12-2-17-1-3-4-15-8-14l-4 2-5 2c-4 1-9 1-13-1-6-2-8-10-5-16l4-4 4-5c3-3 7-4 11-4zm-42-5c5 0 9 1 12 5s1 10 0 14l-3 5-1 6c-1 5-4 10-7 15-2 4-6 7-10 5-5-2-6-7-6-11l-1-6c-2-3-4-3-6-4-5-3-5-8-3-12 2-5 5-10 9-13 5-2 11-4 16-4z"/>
  <path class="centre" d="M1201 559c-6 3-12 8-19 6-4 0-7-2-10-3l-12-5c-13-8-19-25-19-39 0-6 1-13 6-18 5-4 14-5 21-6s13 2 19 5c4 1 7 3 9 6 3 3 4 8 6 11 3 8 10 16 10 25-1 7-6 13-11 18z"/>
  <path d="M1141 567c-6-7-12-15-13-25v-24c0-7 1-17 8-20 3-2 7-1 10-1 5 1 7 3 8 7 4 8 6 15 4 23-3 8-1 13 5 19 2 3 5 6 9 7l7 2 4 4c5 2 14 11 8 17-3 2-8 2-12 3-4 2-8 2-12 2l-15-3c-5-3-8-7-11-11zm49-89c4 3 5 8 7 13 2 4 4 8 4 13 1 6-4 7-9 9-2 1-4 2-6 1l-3-6-5-2-7-3-14-11c-3-3-6-8-5-12s5-7 8-9c6-2 10-4 16-3 5 1 12 6 14 9zm33 81c-4 4-9 3-14 2-6-2-11-1-14-7-3-5-2-11-2-16 0-6 1-10 6-13s10-4 15-2l7 4c3 2 4 5 6 8 4 3 8 5 7 10 0 6-7 11-11 14z"/>
  <path class="centre" d="M1209 832c-10 0-18-6-25-12-3-3-7-5-9-9-3-4-3-9-2-14 0-6-2-11-3-17-1-5 0-11 3-16 2-4 5-8 9-10l7-2 7-4c4-2 8-6 13-6l14 3c6 2 11 4 16 4 6 1 11 1 16 3 5 1 9 4 12 7l5 6 4 6c2 4 3 10 0 14l-8 10-12 13-15 9-16 11c-5 2-11 4-16 4z"/>
  <path d="M1203 851c-4 0-10 1-13-3-4-4-1-11-1-16 1-4-1-9 2-12 4-4 10 1 13 3 5 4 8 4 12-1 2-2 4-4 3-7l-1-8c-1-4 0-9 4-11 5-2 8 2 11 5 4 3 10 4 15 2l5-5 4-7c2-5 4-10 8-14l5-6 8-1c10 1 17 12 11 21l-5 7-4 8c-3 5-6 7-12 8l-8 4-9 2c-4 0-6 3-8 5l-9 5c-6 4-10 10-15 15-2 2-3 4-6 5l-10 1zm-52-84c0-11 6-18 16-21l18-7c5-2 10-3 15 0 6 5 4 15 1 21l-3 5c-2 2-3 2-6 2-5 0-11 6-15 9l-8 6c-3 1-7 1-10-1-5-2-9-7-8-14zm64-16c0-8 7-18 14-22 8-3 18 0 25 4 4 2 8 4 10 7 4 4 2 9-1 13-5 7-13 13-22 11l-18-4c-4-2-8-4-8-9zm-52 77l2-8 1-9c1-5 3-11 6-15 4-6 17-9 20-1v15c-1 5-5 9-7 13-3 5-7 8-12 10s-10 0-10-5z"/>
  <path class="centre" d="M315 1152l-30-2c-8-1-17-2-24-6s-10-11-14-17c-2-3-5-5-6-9v-11c3-8 10-11 18-13 8-3 17-5 25-4 7 2 14 6 19 11s10 12 12 19l2 6 4 6c2 3 7 6 7 10 2 8-8 10-13 10z"/>
  <path d="M292 1074c10 1 21 3 25 13 3 8 2 19-5 24-3 4-8 5-12 3-3-1-5-2-6-4l-1-6c-1-2-2-2-4-1l-10 2c-6 0-11-4-11-10-1-6 1-13 6-17s12-4 18-4zm32 56c7-1 14 3 17 10a25 25 0 012 13c0 5 0 10-3 14-4 8-15 8-22 3l-11-11c-2-3-4-7-4-11 0-6 2-11 6-14 3-3 10-5 15-4zm-47 33c-8 0-18-1-23-7-7-8-1-21 8-24 5-2 10-2 15 0 2 0 4 2 5 4l4 8 5 7c1 2 0 5-1 8-3 5-9 4-13 4zm-49-49c1-7 3-15 10-18 10-4 15 6 17 14s-3 17-11 18-17-6-16-14z"/>
  <path class="centre" d="M147 1022c-10 0-27-7-20-20 1-3 3-4 6-6s4-4 5-7c3-6 8-9 13-13 5-5 11-8 18-10h10c4 1 6 3 8 6l8 6c2 2 4 3 4 6 0 7-4 13-9 18l-9 8-12 4-10 5-12 3z"/>
  <path d="M183 999c-1-6 3-12 5-17s5-9 10-9c6 0 13 3 18 5l9 3c4 0 6 0 9 2 13 7-1 17-8 22-4 3-11 5-13-1-2-2-2-4-6-4l-6 3c-4 3-6 8-11 7-6-1-7-6-7-11zm-75 22l2-8 1-7c2-5 4-9 8-12s9 0 14 1c4 2 10 3 12 8s-2 10-4 14-6 9-11 10-8 4-14 3c-4-1-8-5-8-9zm56-67c7 0 17 2 18 9 1 5-2 10-5 14l-3 5c-2 2-5 2-7 3-6 2-11 2-16 0a14 14 0 01-7-12c0-5 1-10 4-13 5-5 10-6 16-6zm-12 80c-3 0-7-2-8-6 0-3 2-7 4-9l10-9c3-2 6-5 10-5 6 1 9 10 5 15l-10 8c-3 3-6 6-11 6z"/>
  <path class="centre" d="M896 145l16 1c5 2 10 4 14 8 7 6 11 14 10 24-1 5-3 10-6 14-2 4-5 9-9 11l-13 7-11 9c-8 4-18 2-27 0-10-2-21-4-30-9a22 22 0 01-9-10c-2-4-2-8-2-13-1-4-6-6-5-11 0-4 2-9 6-11l15-9c5-3 10-6 16-7l20-3 15-1z"/>
  <path d="M815 166c-1-7 3-13 7-18 1-3 3-6 5-7l9-3c8-1 14-4 21-2 4 0 6 0 9-3l7-5c6-3 14-3 21-3s14 1 20 4l9 5c1 3 2 6 5 7 2 2 5 1 8 1h10c6 1 10 4 9 10l-2 7-5 9c-2 6-6 12-10 17-2 3-5 5-8 5-4 0-7-3-10-5-5-2-12-3-14-8-2-3-1-7 0-10l2-8h-6l-11 1-21-3-10 3c-3 2-4 5-5 9-2 7-7 13-12 17-7 5-14 4-21-1-5-4-8-13-7-19zm102 45c0 5-1 9-4 13s-4 8-6 13c-2 8-5 17-13 22-7 4-16 1-23-2l-6-3-4-4c-3-3-8-4-10-8-2-3-3-7-8-8l-5-2-4-5c-3-3-7-5-8-9-1-5 2-8 6-11l8-8c4-3 10-4 15-2 4 2 6 5 11 6 4 2 10 2 15 2 8-1 15-6 24-5 6 0 13 3 12 11zM746 544c0 6-1 12-7 13h-9c-4 0-6-2-9-4l-9-5c-4-2-6-5-10-6-7-3-14-4-19-10l-5-10c-1-4 1-7 2-10 3-7 6-11 14-11 4-1 8-1 11-3l12-5c7-1 12 3 14 10 2 4 2 8 2 13 0 4 3 8 5 11 3 5 9 10 8 17zm-6-452l-1 13-7 10-8 6-6 2-5 4c-4 2-8 1-11-1s-6-2-9-1c-4 1-7 4-11 3-4 0-8-2-10-5-3-5-1-14 1-19l6-9 8-9c4-4 9-11 16-9 3 1 5 4 5 7 1 3 1 5 4 2 3-2 2-6 4-9 2-4 7-5 11-4 3 1 5 5 8 7 3 4 6 7 5 12zm357 134c1-4 2-8 5-12 2-3 6-5 10-7 3-2 6-4 9-4l6 1 7-2c4-1 7 1 10 4 2 2 5 3 8 3 4 1 8-1 11 1 4 1 7 4 8 8 1 6-3 14-7 18l-9 6a76 76 0 01-10 6c-5 3-12 7-18 3a8 8 0 01-3-8c1-3 1-5-2-3-4 1-5 5-8 8-3 2-7 3-11 0-3-2-4-6-5-10-2-4-4-8-2-12z"/>
  <path class="centre" d="M1023 100c0 11-4 23-15 27-6 2-11 2-17 0s-11-5-14-10c-6-7-12-19-7-28 3-5 8-9 12-12 6-4 11-4 18-3 6 2 13 3 17 8 5 5 5 12 6 18z"/>
  <path d="M1024 123c-8 0-11-5-13-11-1-3-3-5-2-9 0-4 1-6-1-10l-6-6c-3-2-7-1-10-3-6-2-7-7-6-12 1-7 5-9 11-9 7 1 15 1 22 4 6 2 11 6 16 10 4 3 10 6 11 12 0 4-1 8-3 11l-4 11c-3 6-8 12-15 11zm-17 0c0 5-1 10-6 12s-11 1-17 0l-18-6c-4-3-10-5-12-9-3-6-1-13 1-19 1-5 4-11 8-15 4-3 10-5 15-2 4 3 5 8 6 12 3 6 8 7 13 10 4 2 6 5 8 8s2 6 2 9z"/>
  <path class="centre" d="M800 330c4 2 10 2 12 7 1 2 1 4 3 5h9c6 0 12 1 16 5 4 5 3 12 0 16-3 7-9 8-15 9-8 2-15 1-23 0l-22-1c-3-1-6-2-7-4l-1-4-3-5c0-3 2-6 5-8l10-9 8-8 4-2 4-1z"/>
  <path d="M834 388c-4-1-8 1-12 2-5 1-10 2-14 1-6-1-12-3-16-8-2-2-2-5-2-9 1-3 1-8 5-9s6-4 10-3c4 0 6 3 9 6l4 2 5-4c3-2 7-4 5-8-1-3-3-6-2-10 0-4 2-8 5-11 7-7 12 2 19 4 4 1 9 0 12 2s3 6 3 9l-2 6-1 7c-1 5-4 7-7 10l-8 9a16 16 0 01-13 4zm-50-67c5 0 12-1 17 1 6 3 7 8 3 13s-7 10-12 13c-3 2-4 3-5 6v10c0 7-5 12-11 15-6 2-12 1-17-3-5-3-10-8-10-15 0-6 5-11 11-14l8-4c3-3 2-6 3-10 0-3 1-7 4-9 2-3 5-4 9-4z"/>
  <path class="centre" d="M638 14c10 1 22 2 28 11 3 4 2 9 1 14l-2 15c-2 5-6 9-10 13l-6 5-6 4-13 10c-4 2-8 3-11 8l-8 11c-3 4-7 8-13 8l-7-2-9-2-7-4-7-4-6-5c-2-3-1-5 0-8l1-18c0-6 0-12 2-18 2-5 5-10 9-14a22 22 0 0114-8l9-2 8-4a107 107 0 0127-10h6z"/>
  <path d="M548 101V88c-1-5-4-8-4-13V63c1-3 3-5 6-6 3-2 6-4 5-7l-2-4v-7c1-3 2-6 5-9l7-7c2-3 4-3 8-3l14 1h7l5 1c3 0 6-4 9-6 5-6 12-10 19-14 7-3 14-5 22-4 5 2 12 5 14 11 1 6-5 13-11 15-3 2-8 2-12 2s-8 2-12 0c-2-1-4-3-7-1-4 2-5 5-7 8l-7 8c-2 3 0 7-3 10-2 3-6 2-9 1-3-2-5-4-9-3l-7 5c-3 3-4 7-4 11 0 3-2 7-1 11l1 9c0 4 1 7 4 9 4 2 7 3 9 7 3 6 2 17-7 18l-4-1-6-1-11-4c-6-2-13-5-12-13zm137-89c12-1 22 13 19 25-2 7-8 14-14 17-3 2-5 3-8 1s-5-4-8-1l-6 7-8 5c-6 3-13 4-17-2-3-5-3-11 1-16 5-5 11-6 17-8 3-2 5-3 6-7 0-4 2-7 4-10 3-6 6-11 14-11z"/>
  <path d="M618 129c-6 0-10-2-13-6-4-4-9-8-9-14l2-8 2-7c1-5 7-7 10-10 3-4 8-8 13-9 4 0 9 3 12 6 3 4 6 9 6 14 1 3 0 4-2 7-2 2-1 3 0 5 1 6-4 11-6 15-3 5-9 7-15 7z"/>
  <path class="centre" d="M1051 140c0-5 0-10 2-15 1-4 4-8 6-11 5-7 12-14 19-18 4-3 8-3 13-2s10 1 14 3l10 7 3 5 5 1c7 1 14 5 16 12v14l-4 13c-4 7-11 14-19 18-3 2-8 3-12 2l-15 2h-7l-5-2-6-2c-3-1-3-3-5-4l-5-5-5-5a20 20 0 01-5-13z"/>
  <path d="M1039 142c0-7 2-13 8-18 2-2 5-2 8-2s4 2 7 4l8 4 8 7c5 4 9 9 15 12 4 3 9 7 8 13s-6 11-10 15c-4 5-11 7-17 6-6 0-14-1-19-4-6-3-8-9-10-14-2-8-6-15-6-23zm18-48l2-8c0-3 0-6 2-9 2-4 6-8 10-10 9-3 21 0 29 6 4 4 7 9 9 13 3 5 5 11 3 17l-4 6-7 4h-7l-10-1-19-7c-4-2-8-5-8-11zm57 65v-10-8l5-3 4-5c3-4 6-9 10-11 5-2 10 1 14 4s7 7 7 12l-2 8-3 10c-3 9-9 20-19 23-4 2-11 1-14-3-4-5-2-12-2-17zM937 103c0 5-3 9-7 11-4 3-8 7-13 6l-8-2-9-3-15-7c-4-3-6-7-4-12 2-4 5-10 10-11 2-1 4 0 6-2 2-1 3-3 5-3 5-2 11 0 15 1 10 3 20 11 20 22z"/>
  <path class="centre" d="M979 479c4 4 8 8 8 14v11l3 9c2 6 1 12 0 17-2 7-1 14-1 20l3 21c1 6 2 12-2 17-3 6-9 10-15 13-5 3-11 4-17 5-7 2-13 3-20 2l-9-3c-2-2-4-2-7-3-5-2-9-8-12-12-3-5-8-9-9-15v-9l-2-9-1-9 1-4v-5c0-6 4-11 5-17l6-21c2-8 8-13 16-15l11-2c3 0 6 0 9-2 6-3 10-10 17-11s11 4 16 8z"/>
  <path d="M945 500c-5-5-8-12-9-19v-10l-1-10c1-7 3-12 8-16 4-3 9-4 14-3l8 3h8c7-1 11 4 14 10 2 6 2 12 0 17l-6 21-2 4-5 2-5 2-5 1-10 3c-4 0-6-3-9-5zm57 22c6 4 10 12 12 19l1 10 4 11c4 13-4 31-19 32-11 1-17-13-19-22l-3-11 1-11-5-20c0-8 5-14 12-16s12 3 16 8zm-116 7c-5-5-9-10-9-17 0-6 1-13 5-18 5-5 11-8 16-11 4-2 9-4 12-2s4 5 5 8l5 8 2 9c0 3 2 7 4 10 2 5 4 11 2 17-3 5-8 9-14 9l-10-3-8-4c-3 0-5-1-6-3l-4-3zm16 76l-6-6-1-8c0-6-4-10-4-16 1-6 2-12 7-16 4-3 9-3 14 0l10 10 8 11c5 8 6 18-2 25-7 6-20 9-26 0zm74-22c6 5 10 13 9 21-2 9-12 13-20 15-3 0-8 2-12 1-5-1-7-8-10-12-2-3-6-7-5-12 1-4 5-7 9-10 5-3 10-5 16-6 5-1 10-1 13 3z"/>
  <path class="centre" d="M741 222c-10 1-19-3-28-5-8-2-15-5-20-11l-8-10c-2-3-5-5-5-9s3-6 5-8l12-8 12-5c4-2 6-6 9-8 7-5 17-6 25-6 10 0 18 1 24 9 5 7 4 16 4 24 1 5 2 10 0 15l-8 13c-5 8-13 9-23 9z"/>
  <path d="M789 208c0 8-1 19-9 24-5 3-12 3-17 0l-8-4-8-4c-5-3-10-9-8-15 0-3 2-4 5-5s3-4 5-6 4-1 6-2 3-4 4-6c3-5 9-7 15-6 11 2 15 14 15 24zm-8-70c0 6-2 12-5 18l-7 11a8 8 0 01-6 2l-9 1c-5 1-10 3-16 3-5 0-10-4-10-9l2-7 4-9 4-5c1-2 1-4 3-5 1-2 3-2 5-3l8-4c6-4 11-7 18-6 6 1 10 6 9 13zm-73 28c1 5-2 9-5 13s-5 8-9 11-8 5-13 4c-4 0-8-3-11-7-5-7-3-17 0-25s10-13 19-14c6 0 11 1 15 5 4 3 4 8 4 13zm5 63c-9 0-19 0-27-6-4-2-7-6-5-10 0-3 2-5 3-7l3-7c3-4 6-5 10-4l16 3c5 0 10 1 13 4s4 7 4 11c-1 8-8 18-17 16z"/>
  <path class="centre" d="M577 151c11 0 22 3 32 9 8 5 17 10 22 18 3 5 4 10 5 16 1 5 2 10 6 14 3 4 7 6 8 11l2 17c0 9-7 15-16 15l-15-3-18-3-16-6c-5-2-8-5-10-9-6-11-12-21-16-32l-8-16c-4-5-7-8-5-15 4-11 18-15 29-16z"/>
  <path d="M536 159c0-6 0-12 4-17l6-4 7-6c9-6 21-4 30 2 5 4 10 8 16 10s13 2 19 2l17-1c4-1 9-2 12 1 3 5 0 11-1 16-2 6-1 13-2 19-1 5-2 12-6 15-4 4-10 6-16 5-5-2-6-7-6-12-1-5-1-11-3-16-1-2-2-4-4-4h-9c-6-1-10-5-16-7-2-1-5-2-7-1s-3 7-4 9c-2 6-7 10-13 13-6 2-12 0-17-5l-6-7c-2-4-1-8-1-12zm68 97l-13-1-11-3c-7-5-14-9-19-15-3-3-5-6-6-10l-2-13c-2-8 5-15 12-17 6-2 16-2 21 2 4 5 1 12 2 18 1 2 4 14 8 14l4-3 5-2c4-1 9-1 13 1 6 2 8 11 5 16l-5 4-3 5c-3 4-8 4-12 4zm41 5c-4 1-9-1-11-5-4-4-1-10 0-14 0-3 1-3 3-5l1-6c1-5 4-10 7-14 2-4 5-8 10-6s5 7 6 11l1 7c1 2 4 3 6 4 5 2 4 7 2 12-2 4-4 9-9 12-4 3-10 5-16 4z"/>
  <path class="centre" d="M970 332c12 0 23 3 33 9 8 4 17 10 22 18l5 16c1 5 2 10 5 14s7 6 9 11l2 17c0 9-7 15-16 15l-16-3c-5-2-11-2-17-3s-11-4-16-6-8-5-11-9l-16-32-7-16c-4-5-8-8-6-15 4-11 19-15 29-16z"/>
  <path d="M929 340c0-6 1-12 5-17 1-2 4-3 6-4l6-6c9-7 22-4 31 2 5 4 10 8 16 10s12 2 19 2l17-2c3 0 9-1 11 2 3 4 0 11-1 15-1 7 0 13-2 20 0 5-1 11-5 15s-11 6-16 5c-5-2-6-7-7-12 0-5-1-11-3-16 0-2-1-4-4-4h-9c-6-1-10-5-16-7-1-1-5-3-6-1-3 1-3 7-4 9-3 6-7 10-13 13-7 2-12-1-17-5-3-2-5-5-6-8-2-3-2-7-2-11zm68 97l-12-2c-5 0-8 0-11-2-7-5-14-9-20-15-3-3-5-6-5-11l-2-12c-2-8 5-15 12-18 6-1 16-1 20 3 5 5 2 12 3 17 0 3 3 15 7 15l4-3 6-2c4-1 9-1 12 1 6 2 9 11 5 16l-4 4-4 5c-3 4-7 4-11 4zm42 5c-5 0-9-1-12-5s-1-10 0-14l3-5c2-2 1-4 2-6 0-5 4-10 6-14 3-4 6-8 11-6s5 7 5 11l2 6c1 3 3 3 6 5 5 2 4 7 2 12-2 4-5 9-9 12-5 3-11 5-16 4z"/>
  <path class="centre" d="M1123 294c3 0 5 0 8 2l7 7c2 4 0 10-2 15-4 10-15 13-26 15l-9 3c-3 1-6 2-9 1-3 0-5-1-6-3l-3-4-1-3c-1-2-3-3-3-5-1-2 1-5 3-6l12-11a62 62 0 0129-11z"/>
  <path d="M1151 292c0 4-2 6-5 7-1 1-3 2-1 3h3c7-1 13 6 12 12-1 4-4 6-7 7l-12 7-10 5c-3 1-8 3-10-1-4-4 2-11 5-14 1-3 5-4 3-7-3-3-6-2-9-2-7 2-12-1-14-8 0-3 1-5 3-8 1-3 2-7 5-9 3-3 7-6 11-5l6 2c1 1 2 3 4 3 1 1 3 0 4-1a13 13 0 017 1c4 1 5 4 5 8zm-88 41c1-5-1-10 1-14l5-6 5-5c4-2 9-1 12 2s4 6 8 5c4 0 8-1 11 2 2 3 1 8 0 12-2 4-5 6-9 9l-11 9c-9 5-23-4-22-14z"/>
  <path class="centre" d="M863 572c0 3 0 6-2 9-1 2-3 5-6 6-4 3-11 1-15 0-10-5-14-15-16-26l-3-9-3-9 4-6 3-3 4-1c1-1 2-3 4-3 2-1 5 1 7 2l11 12a59 59 0 0112 28z"/>
  <path d="M866 601c-3 0-5-2-7-5 0-1-1-3-3-2l1 4c1 7-5 14-12 12-3-1-5-4-7-6l-8-12-5-9c-1-4-4-8 0-11 4-4 12 1 15 4 2 2 4 5 7 3 3-3 2-6 1-9-2-7 1-12 7-14 4-1 6 0 8 2 4 1 8 2 10 5 3 3 6 7 6 11l-2 6c-1 1-3 2-3 4-1 1 0 3 1 4v7c-1 4-5 5-9 6zm-44-87c4 1 9-1 13 1l6 4 5 5c3 4 3 9-1 12-3 3-5 4-4 8 0 4 1 9-2 11-3 3-8 2-11 1-5-1-7-5-9-9-3-4-8-6-10-10-6-9 2-23 13-23z"/>
  <path class="centre" d="M753 250c11-1 21 2 30 9 3 3 7 5 8 9v17c0 5-1 9-5 13l-13 10-12 10c-4 3-9 3-13 6-5 2-8 6-13 9a61 61 0 01-47-3c-4-3-8-7-10-11l-1-9v-8c2-9 5-18 12-23 5-4 11-3 16-6 6-2 10-7 14-10 4-4 8-8 14-10 6-3 13-3 20-3z"/>
  <path d="M661 320l2-13c0-4 0-7 2-11l5-9 6-12c3-6 11-10 18-11 7-2 15-1 21 4 2 1 4 4 3 7l-3 2-3 4c0 3-1 5-4 6l-12 4h-9c-3 1-4 5-4 8l3 9 4 10c4 6 11 5 17 7 4 0 6 2 10 3 3 2 5 0 7-2 4-6 6-14 12-19l7-6c3-3 7-3 11-2h11c3 0 7-1 8 3 1 3-2 7-3 10 0 4-2 7-4 10-4 6-11 9-16 13l-8 6-9 7c-6 6-15 6-24 8-8 1-16-3-23-7-12-5-25-15-25-29zm139-70c8 0 15 6 15 15v2l-1 7-5 4c-3 3-5 7-9 9-5 2-10 2-16 2-4 0-10 0-14-3-7-5-2-14 3-19l12-11c4-4 9-6 15-6zm-57 19c-7-1-23-3-24-11-1-5 2-8 5-10l5-4c2-2 5-3 8-3l15-2 15 3c4 1 7 3 8 7 1 3 0 6-2 8-3 4-9 4-13 6-6 3-11 5-17 6z"/>
  <path class="centre" d="M714 397c10 1 22 2 31 7 8 4 14 12 17 21 1 5 1 10 3 14 3 4 3 9 2 13 0 4-2 8-4 11-3 4-7 5-11 6l-14 4c-5 1-9-1-14-4l-24-8c-12-4-28-12-27-27 1-5 4-9 6-14 2-4 2-8 6-11 3-4 9-6 13-8 5-3 10-4 16-4z"/>
  <path d="M726 408c-4 0-9-1-13 1s-6 5-9 8c-5 6-15 6-20 0-3-2-5-5-6-9 0-4 0-9 2-13l5-5 6-1 5-4 7-3c4-2 9-2 14-2 4 0 9-1 12 3 2 2 2 8 5 9 3 0 7-6 9-7 4-3 8-3 12 0 4 2 4 7 4 11 0 10 3 20-2 29-4 9-16 9-20 0l-1-8c0-2 1-6-1-8s-6-1-9-1zm58 54c0 7 0 15-5 20-3 2-7 3-11 3l-5-3-7-4c-2-1-4-5-6-5s-2 2-2 3c0 3 1 5-1 7-3 7-12 8-19 7l-12-6c-4-2-8-4-10-7-4-8 4-17 10-21 8-4 17 1 23 5 3 2 7 5 9 2l2-5 3-7c4-7 13-15 21-10 8 4 11 14 10 21zm-82-10c0 5-1 9-6 11-5 1-12 4-18 1-5-2-10-6-13-11-4-5-5-9-3-15 1-5 3-10 8-12s11 0 15 3c8 5 17 13 17 23zM886 363c5 0 10 0 12 4s1 9 5 10 7 2 6 7c0 4-2 8-6 10-5 2-10 0-15 0h-16c-3 0-9-1-10-5s1-8 2-11c1-4 2-9 6-11l7-3 9-2zM535 614c5 0 10 0 12 4s1 8 5 10c4 1 7 2 6 7 0 4-2 8-6 10-5 2-10 0-15 0h-16c-3 0-9-1-10-5s1-8 2-11c1-4 2-9 6-11l7-3 9-2z"/>
  <g>
    <path class="centre" d="M878 328c-3 0-7 0-10-2l-9-4c-4-2-14-3-16-9-1-5-3-11 2-15 4-4 9-6 13-9l8-4 11-1c7-1 14-2 20 1 9 3 18 12 12 22-6 12-18 20-31 21z"/>
    <path d="M903 275c4 0 7 2 10 4l14 5c7 4 4 11-2 14-4 1-6 2-6 6s-3 7-4 11c-2 7 1 15-8 18-7 3-15 1-21-3-3-2-6-4-7-7s0-6 1-9c2-4 7-2 10-3 4 0 6-4 9-7 2-3 5-7 2-10-2-2-4-2-6-2-3 0-11 1-10-4 0-8 11-13 18-13zm-65 6c3 0 4 2 6 3 2 2 5 0 7-1 5-2 11-5 17-4 4 1 7 6 4 10l-7 4-6 6c-2 2-3 3-2 5l7 7c2 3 3 8-1 10-4 3-11-1-15-3l-14-12c-5-4-8-9-6-15 1-4 5-10 10-10z"/>
  </g>
  <g>
    <path class="centre" d="M947-40c5-1 9 1 14 3l14 3c4 1 7 2 9 5 3 4 6 8 7 12 1 5 0 9-1 13l-5 13c-4 8-11 15-19 20-14 9-33 8-48 1-8-4-13-10-17-18l-4-12c-2-5-1-10 1-14 2-8 10-12 17-16 10-6 21-9 32-11v1z"/>
    <path d="M973 24c0 4-3 7-5 10l-2 5c-1 3-3 4-5 6-5 6-2 15-8 21-4 4-12 3-14-3-2-3-2-4-5-4-5 0-9-2-12-4l-12-8-10-7c-3-3-5-6-5-10l5-10c4-6 8-12 16-11l7 5c1 3 1 7 3 9s4 1 6 2h7c5 0 11-2 15-5 6-3 19-6 19 4zm-96-37c-1-11 9-23 20-25h9l10-1c5-1 13-2 15 4 4 9-10 17-17 20l-6 3-1 7c-1 5-3 8-9 9-11 3-21-7-21-17zm81-42c7 0 21-2 25 6 2 5 0 13-3 16s-6 3-10 4-6 2-7 6c-1 5-3 13-9 14-5 1-14-3-14-9 0-5 13-15 8-20-2-2-5-1-7-4a8 8 0 01-1-10c4-5 12-3 18-3zm27 65c-5 0-10-3-12-8l-3-7c0-3 3-3 4-5 2-2 2-5 3-7l2-9c1-5 3-9 8-8 6 0 11 2 16 6 4 4 2 9 0 13l-9 17c-2 4-4 8-9 8z"/>
  </g>
  <g>
    <path class="centre" d="M988 194l39 4c6 1 11 3 17 3 5 1 10 3 14 6a22 22 0 018 13l1 9v8c-1 10-9 18-17 23-10 7-17 15-28 20-5 2-11 4-16 3l-15-6h-16c-2 0-3-2-5-3l-6-3c-3-4 1-10-1-15-1-5-5-8-6-12v-10c1-3 3-4 5-6 3-5 3-11 3-16 1-5 1-9 5-12 5-4 12-6 18-6z"/>
    <path d="M1078 245c-1 8-4 15-9 20l-10 7-7 9-6 9c-2 4-5 8-9 11-5 3-14 2-20 1-6-2-13-6-14-13 0-4 2-7 3-11s1-8 3-11c2-5 6-12 12-13 3-1 6 1 9 1s7 0 11-2l10-8 10-8c8-7 17-1 17 8zm-113 50c-6 0-11-3-15-8s-8-10-10-16c-3-6-2-13-1-20 2-6 4-12 8-16 4-5 9-9 15-6 5 3 8 8 12 12 4 3 10 3 14 7 2 2 2 4 2 7l1 11c-3 12-12 28-26 29zm42-78c-6 0-12-3-18-5-4-2-9-4-13-8-3-4-4-10-2-15l5-7 5-8c3-4 9-6 14-5 6 2 9 7 14 9 4 3 10 2 14 6 4 3 4 7 3 11-2 11-11 22-22 22zm32-7c0-3 0-6 2-9l6-6c3-2 9-5 13-5 5 0 10 2 13 6 2 4 2 9 1 13-2 9-8 17-17 17-9-1-19-6-18-16z"/>
  </g>
  <path d="M629 458l18 2c5 0 9 1 13 4 4 4 6 8 2 13l-6 5c-1 2-2 3-4 3-3 1-5 0-7-1l-9-2c-5 0-10 0-14-3s-8-8-5-13c3-4 7-7 12-8z"/>
  <g>
    <path class="centre" d="M1075 559h-16c-4-2-7-6-8-10-3-10-1-22 6-30 5-7 15-11 23-6s14 15 14 24c0 5-1 11-4 15s-9 9-15 7z"/>
    <path d="M1107 552c-3-1-6 2-9 3l-8-1c-2-2-2-4-5-6s-3-4-4-7c-2-5-6-12-11-14-3-1-4 0-5 2l-3 8c-2 3-4 6-3 9l4 9 4 9c2 3 4 6 3 9l-4 8-4 7c-3 6-8 8-14 6s-11-6-12-12l-2-10c-1-3-2-7-1-11l4-9v-9l-7-7c-2-3-2-7-1-11a54 54 0 0120-36c6-4 14-4 21-5s14-1 19 4l6 9 7 9c3 3 6 6 7 10l3 10c3 5 8 9 7 16-2 6-6 10-12 10z"/>
  </g>
  <path d="M1120 1054c-3 4-8 8-14 5l-6-6c-3-3-4-6-4-10l-4-9-3-12c-3-7-7-12-7-20 0-4 1-7 3-11 2-3 5-4 9-5 6-3 11-4 17 1l10 5 12 4c6 4 7 10 4 17l-7 11c-3 3-4 7-4 11-1 7 0 14-6 19z"/>
  <g>
    <path class="centre" d="M895 857c-1 4-2 10-7 12-1 1-4 1-5 3v10c0 5-1 11-5 15s-11 3-16 0c-6-3-8-9-9-15-2-8-1-15 0-23 1-7 0-15 2-22 0-3 1-6 4-7l3-1 5-2c4-1 6 2 8 4l9 10c3 3 6 5 8 9l2 4 1 3z"/>
    <path d="M837 891c1-4-1-8-2-12-1-5-2-10-1-14 1-6 3-12 8-16 2-2 6-2 9-1 3 0 8 1 9 4 1 4 4 6 3 10 0 4-3 7-6 10-1 1-2 1-2 3l4 5c2 3 4 7 8 6 4-2 7-3 11-3 3 1 7 2 10 5 7 7-2 12-4 19-1 4 0 9-2 12s-6 3-9 3l-6-1-7-2c-5-1-7-4-10-7l-9-8c-3-4-4-8-4-13zm68-50c-1 6 1 12-2 17-2 7-8 7-13 3s-10-7-13-12c-1-3-3-4-6-5h-10c-6 0-12-5-15-11-2-5-1-12 3-17 3-5 9-10 15-10s11 6 14 11c2 3 2 6 5 8 2 3 6 2 9 3 4 0 7 2 10 4 3 3 3 6 3 9z"/>
  </g>
  <g>
    <path class="centre" d="M820 793c-2 10-2 23-11 29-4 2-10 1-14 0-5 0-11 0-15-2-6-2-9-6-13-10l-5-5-4-7-11-13c-2-4-3-8-7-10l-12-9c-4-3-7-7-7-13l1-7 3-8c0-3 2-5 3-8l4-7 5-6c3-2 6-1 9 0l18 1c6 0 12 0 18 2 5 2 10 6 14 9a22 22 0 018 14l1 9 4 8c4 6 6 12 8 18l2 10 1 5z"/>
    <path d="M733 703h13l12-4c4-1 8-1 12 1 4 1 5 3 7 6 1 2 3 5 6 4l5-1h7c3 0 6 1 8 4l8 7c3 2 3 4 3 8l-1 14-1 7-1 5c0 4 5 6 7 9 5 5 10 12 13 19 4 7 6 14 4 22-1 5-4 12-10 14-7 2-14-4-16-10l-2-12c-1-4-2-9 0-12 1-3 4-5 2-8s-5-5-9-7l-7-7c-3-2-8 0-11-2-3-3-2-7 0-10 1-3 4-5 2-8l-5-8c-3-3-6-3-10-4-4 0-7-2-11-1l-10 1c-4 0-6 1-8 4-2 4-3 7-7 9-7 3-18 2-19-7l2-4 1-6 3-11c2-6 6-13 13-12zm89 137c0 12-13 23-25 19-7-2-14-8-18-14-2-3-2-5 0-8 1-3 4-5 1-8-3-2-6-3-8-6l-5-8c-2-6-3-13 2-17 5-3 12-3 16 1 5 5 7 11 9 17 1 4 3 5 7 6 3 0 6 2 9 4 6 3 12 7 12 14z"/>
    <path d="M705 773c-1-5 2-10 6-13s8-8 14-8l7 1 8 2c5 1 6 7 10 10s8 8 8 13c1 5-2 9-5 12-4 4-9 6-14 7-3 0-5-1-7-3h-5c-6 1-11-3-16-6s-7-9-6-15z"/>
  </g>
  <path d="M851 651c-4-3-4-8-3-13 0-4 1-10 5-13l7-3 9-4c5-3 10-5 16-6 5-1 9 1 11 6 2 4 3 10 0 14-1 3-3 3-3 6l-1 6c-3 4-8 7-12 10-9 5-22 5-29-3z"/>
  <g>
    <path class="centre" d="M1005 973c7 1 14 1 19 7l6 9 6 11c5 14-1 31-10 42-4 5-10 10-16 10-7 1-15-5-21-8-6-4-9-10-12-16l-2-10c0-5 2-9 3-13 2-8 1-19 7-25 5-6 13-7 20-7z"/>
    <path d="M1057 1005c0 9-1 18-6 27-4 7-11 12-16 18-4 5-11 12-19 11l-8-6c-3-4-3-7-2-11 2-7 5-14 12-19s9-10 8-18c0-4 0-8-3-12-1-2-3-3-3-5l-2-6c-2-5-3-18 5-18 4 0 8 3 12 4l10 7c3 4 7 7 9 12 3 5 3 10 3 16zm-95 37c-1-5 2-9 3-14s2-10 5-13c3-5 8-3 12-1 2 0 5 1 5 3v6l2 5 4 7 3 17c1 5 0 10-3 13-4 2-8 2-12 1-6-1-11-3-15-8-3-3-5-11-4-16zm26-84c6 0 9 4 12 8 4 5 8 7 7 14-1 5-6 9-9 13-4 5-7 8-13 7s-10-3-13-8c-1-3-3-5-3-8v-10c-1-4-2-9 1-13 4-4 13-2 18-3z"/>
  </g>
  <g>
    <path class="centre" d="M1147 852l-2 8-7 7c-4 2-11 0-15-2-10-4-14-15-15-26l-3-9-2-9c1-3 2-5 4-6l4-3 3-1c2-1 2-3 5-3 2-1 5 1 6 3l11 12a62 62 0 0111 29z"/>
    <path d="M1149 880c-4 0-6-2-7-5-1-1-2-3-3-1v3c1 7-6 13-13 12-3-1-5-4-6-7l-7-12-5-10c-1-3-3-8 0-10 5-4 12 2 15 5 2 1 4 5 7 3 3-3 2-6 1-9-1-7 1-12 8-14 4 0 6 1 8 3 4 1 7 2 10 5s5 7 5 11l-2 6-4 4 1 4a13 13 0 010 7c-1 4-5 5-9 5zm-41-88c4 1 9-1 14 1l5 5 5 5c2 4 2 9-2 12-2 3-5 4-5 8 1 4 2 8-2 11-3 2-8 1-11 0-4-1-6-5-9-9l-9-11c-5-9 3-23 14-22z"/>
  </g>
  <g>
    <path class="centre" d="M939 760c0 12-2 22-9 31-3 3-5 7-9 8-6 1-12 0-18-1s-9 0-13-4l-9-13-10-12c-4-4-4-9-6-14-2-4-7-8-9-13s-3-10-3-16c0-10 1-21 6-30 3-4 6-9 11-11l8-1 9 1c8 1 18 5 23 12 3 5 3 11 5 16l11 14c4 4 8 8 10 13 3 7 2 14 2 20z"/>
    <path d="M869 669l13 1 10 2 9 6 12 6c7 3 10 11 12 18s0 15-4 21c-2 2-4 4-7 2-2 0-2-1-3-2-1-2-1-3-3-3-3-1-5-1-7-4l-3-12-1-9c-1-3-5-4-8-4l-9 3-10 4c-5 4-5 11-6 17l-4 9c-1 4 0 6 3 8 6 4 13 6 18 12l7 6c2 4 2 7 2 11v12c0 3 0 7-3 8l-11-3-10-4c-6-4-8-11-13-16l-6-9-7-8c-6-7-5-16-7-24-1-8 3-16 6-24 6-11 16-24 30-24zm70 138c0 9-7 16-15 16h-2c-2 0-5 0-7-2l-5-4c-3-3-7-5-8-10-2-4-2-10-2-15s0-10 3-14c5-7 14-2 19 3l10 12c4 4 7 8 7 14zm-19-57c1-6 2-22 11-24 4 0 7 3 10 6l4 5c2 2 2 5 2 8l2 15-3 15c-1 4-2 7-6 8-3 1-6 0-8-2-4-3-4-9-7-13-3-6-5-11-5-18z"/>
  </g>
  <g>
    <path class="centre" d="M932 994c-1 11-2 22-6 31a35 35 0 01-22 17c-5 1-10 1-14 4-4 2-9 3-13 2s-8-2-11-5c-4-3-5-6-6-11l-4-14c0-5 1-9 4-13l8-25c4-12 12-27 27-26 5 0 9 3 14 5 4 2 9 3 11 6a55 55 0 0112 29z"/>
    <path d="M921 1007c0-5 1-9-1-14s-5-6-8-9c-6-5-6-15 0-20 2-3 5-5 9-5 4-1 9-1 13 2 2 1 4 2 5 5l1 5 4 5 3 7c2 5 2 9 2 14 0 4 1 9-3 12-2 2-8 2-9 5 0 4 6 7 7 10 3 3 3 8 0 11-2 4-7 4-11 4-10 1-20 3-29-2-9-4-9-16 0-19l8-2h8c2-2 1-7 1-10zm-54 58c-7 0-15-1-20-6-2-3-3-6-3-10l3-6 4-7c1-2 5-4 5-6l-3-1-7-1c-7-4-8-13-7-20l6-12c2-3 4-8 7-10 9-4 17 4 21 11s-1 16-5 23c-2 2-5 6-2 9l5 1 7 3c7 4 16 13 10 22-4 7-14 10-21 9zm10-83c-4 0-9-1-11-6-1-5-4-12-1-17 2-6 6-11 11-14s9-4 15-3c5 1 10 3 12 8 2 6 0 11-3 16-5 8-13 17-23 16z"/>
  </g>
  <path d="M1175 621c0 5 0 10-4 12s-9 0-10 5c-1 4-2 7-7 6-4 0-8-3-10-6-2-5 0-10 0-15v-16c0-4 1-9 5-10s8 1 11 2c4 1 9 2 11 6l3 7c1 3 2 6 1 9z"/>
  <g>
    <path class="centre" d="M910 895l2-10 5-9c2-4 3-14 8-15 6-2 11-4 16 1l8 13 4 8 1 12c1 6 2 13 0 19-4 9-13 18-23 13-11-7-19-19-21-32z"/>
    <path d="M963 920c1 4-2 7-3 11l-5 13c-4 7-12 4-14-2-2-4-2-6-7-6-4 0-7-3-11-4-7-1-15 1-18-7-2-7 0-16 3-22 2-3 4-6 8-7 3-1 6 0 9 1 3 2 2 7 2 11 1 4 4 6 7 8s7 5 11 2l1-5c0-4 0-11 5-11 8 1 12 11 12 18zm-5-65l-4 6c-1 3 0 5 1 8 2 5 5 11 4 16-1 4-6 8-9 4l-4-6-7-7c-2-2-3-3-5-1l-7 6c-3 2-7 3-10-1s2-11 4-15l11-14c4-4 9-8 15-6 4 2 10 5 10 10z"/>
  </g>
  <g>
    <path class="centre" d="M840 1081c1 5-1 9-3 13l-3 14c-1 4-2 7-6 10-3 2-8 6-12 7s-8-1-12-2l-14-4a51 51 0 01-21-67c5-9 11-14 19-17l12-5c4-2 9 0 14 1 8 3 12 11 16 18 6 10 9 20 11 31l-1 1z"/>
    <path d="M776 1106c-4 0-7-3-10-4l-5-3-6-4c-6-5-15-2-21-8-4-5-3-12 3-15 3-1 4-2 4-5 0-4 1-8 4-12l7-11 8-11c3-2 6-5 10-4 4 0 7 3 10 5 6 3 12 8 11 15-1 3-3 6-6 7-2 1-7 1-9 4l-1 6v7c0 5 2 10 5 14 3 6 6 19-5 19zm37-96c11-1 23 10 25 20v9l1 10c1 5 2 13-4 16-10 4-17-11-20-18l-4-5c-1-2-4-2-6-2-5 0-9-3-10-8-2-11 8-21 18-22zm42 81c0 8 1 22-7 26-4 2-12-1-16-4-3-2-3-6-3-9-1-5-2-7-6-8-6-1-13-3-15-9-1-5 4-13 10-13 5 0 15 13 19 8 2-2 2-6 5-8 2-2 6-3 9-1 6 4 4 13 4 18zm-65 27c0-5 3-10 8-12 2-1 5-3 7-2 3 0 3 2 4 3 2 2 6 2 8 3l9 2c5 2 8 3 8 9 0 5-3 11-6 15-4 4-9 2-13 0l-17-8c-4-3-8-5-8-10z"/>
  </g>
  <g>
    <path class="centre" d="M567 1199c-5 0-7-5-10-8l-6-16c-2-5-3-10 2-13 4-3 9-5 14-5 10-1 20 8 26 16 3 3 7 6 7 11 1 5-1 9-5 12-8 5-19 4-28 3z"/>
    <path d="M583 1168c-8 5-15 1-22-4-5-4-8-8-6-15 3-7 10-11 17-7l7 7 7 7 2 4-1 3 4 1 7 2c6 3 12 7 17 12 4 3 10 8 8 14-1 6-6 4-11 4l-10 1c-4 1-8 0-12-3-3-3-5-7-6-12l-1-6v-8zm-38 12c1-3 1-9 5-10 6-3 9 5 12 9 4 3 9 5 10 11 0 3 1 4 3 5s5 3 5 5c0 3-2 5-4 7s-3 4-6 5c-5 1-11-1-15-3-11-5-13-18-10-29z"/>
  </g>
  <g>
    <path class="centre" d="M567-1c-5 0-7-5-10-8l-6-16c-2-5-3-10 2-13 4-3 9-5 14-5 10-1 20 8 26 16 3 3 7 6 7 11 1 5-1 9-5 12-8 5-19 4-28 3z"/>
    <path d="M583-32c-8 5-15 1-22-4-5-4-8-8-6-15 3-7 10-11 17-7l7 7 7 6 2 5-1 3 4 1 7 2c6 3 12 7 17 12 4 3 10 8 8 14-1 5-6 4-11 4-3-1-6 0-10 1s-8 0-12-3c-3-3-5-7-6-12l-1-6v-8zm-38 12c1-3 1-9 5-10 6-3 9 5 12 9 4 3 9 6 10 11 0 3 1 4 3 5s5 3 5 5c0 3-2 5-4 7s-3 4-6 5c-5 1-11-1-15-3-11-5-13-18-10-29z"/>
  </g>
  <path d="M1181 682l-1 18c-1 4-2 9-5 12-3 4-8 6-12 2l-6-5-3-5 2-7 1-9c1-5 1-10 4-14s8-8 13-5c4 3 7 7 7 12z"/>
  <g>
    <path class="centre" d="M825 952c0 9-6 17-12 24-3 3-5 7-9 9-4 4-9 3-14 3-6-1-11 1-17 2-5 1-11 0-16-3-4-2-8-4-10-9l-2-6-4-7c-2-5-6-9-6-13l3-15c2-5 4-10 4-16 1-6 1-11 3-16 1-5 3-9 7-12l6-5 5-4c5-2 10-3 15 0l10 8 13 12 9 15 11 17c2 4 4 10 4 16z"/>
    <path d="M844 957c0 4 1 10-3 13-5 4-11 1-16 1-4-1-9 1-12-2-4-4 0-10 3-13 4-5 4-8-1-12-2-2-4-4-7-3l-8 1c-4 1-9 0-11-4-2-5 2-8 5-11 3-4 4-10 2-15l-5-5a31 31 0 00-7-4l-14-7-6-6-1-8c1-10 12-17 21-11l7 5 8 4c5 3 7 6 8 12l4 8 1 9c1 4 4 6 6 8l5 9c4 6 10 10 15 15 2 2 4 3 5 6l1 10zm-84 52c-11 0-18-6-21-16l-7-18c-2-5-3-10 0-15 5-6 15-4 21-1l5 3c2 2 2 3 2 6 0 5 6 11 9 15l6 8c1 3 1 7-1 10-2 5-7 9-14 8zm-16-64c-8 0-18-7-22-14-3-8 0-18 4-25 2-4 4-8 7-10 4-4 9-2 13 1 7 5 13 13 11 22l-4 18c-2 5-4 8-9 8zm77 52l-8-2-9-1c-5-1-11-3-15-6-6-3-9-16-1-20h15c5 1 9 5 13 7 5 3 8 7 10 12s0 10-5 10z"/>
  </g>
  <g>
    <path class="centre" d="M740 1128l17 23c5 7 10 15 11 23 2 8-2 14-3 21-1 4-1 8-3 11l-9 7c-9 3-15 0-22-5s-14-10-18-17-5-15-4-22c0-7 2-15 6-21l4-5 2-7c0-4 0-10 3-13 4-6 13 0 16 5z"/>
    <path d="M695 1195c-6-8-11-18-6-27 3-8 13-14 21-13 5 1 9 4 11 9v7l-4 4c-1 2 0 3 2 4l8 7a11 11 0 01-1 14c-4 5-11 8-17 6-6-1-11-6-14-11zm22-60c-5-5-6-13-3-20 2-4 5-8 9-10s8-6 12-7c10-1 16 8 17 16l-2 15c-1 4-2 8-6 11s-9 5-14 4-11-5-13-9zm56 15c5 6 11 14 9 22-2 10-15 14-23 9a26 26 0 01-10-12l-1-6 5-8c1-3 0-5 2-8 1-3 4-4 7-5 5 0 8 4 11 8zm-6 68c-6 4-14 8-21 4-9-5-5-16 1-22 5-6 14-8 20-2 5 5 6 16 0 20z"/>
  </g>
  <g>
    <path class="centre" d="M740-72l17 23c5 7 10 15 11 23 2 8-2 14-3 21-1 4-1 8-3 11l-9 7c-9 3-15 0-22-5S717-2 713-9s-5-15-4-22c0-7 2-15 6-21l4-5 2-7c0-4 0-10 3-13 4-6 13 0 16 5z"/>
    <path d="M695-5c-6-8-11-17-6-27 3-8 13-14 21-13 5 1 9 4 11 9v7l-4 4c-1 2 0 3 2 5l8 6a11 11 0 01-1 15c-4 4-11 7-17 5-6-1-11-6-14-11zm22-60c-5-5-6-13-3-20 2-4 5-8 9-10s8-6 12-7c10-1 16 8 17 16l-2 15c-1 4-2 8-6 11s-9 5-14 4-11-5-13-9zm56 15c5 6 11 14 9 22-2 10-15 14-23 9a26 26 0 01-10-12l-1-6 5-8c1-3 0-5 2-8 1-2 4-4 7-4 5-1 8 3 11 7zm-6 68c-6 4-14 8-21 4-9-5-5-16 1-22 5-6 14-8 20-2 5 5 6 16 0 20z"/>
  </g>
  <g>
    <path class="centre" d="M929 665c-7-8-13-24 1-28 3-1 6 0 9 1s5 0 9-1c6-3 12-1 18 0 7 1 13 3 19 7l8 8 1 9v10c0 3 0 5-2 7-5 5-12 6-19 6l-12-2c-4-1-7-4-11-6l-10-4c-4-1-8-4-11-7z"/>
    <path d="M971 676c3-4 10-5 15-7s10-3 14 1c4 5 6 12 8 17l4 9 5 7c3 14-14 11-22 10-5-1-11-5-9-11 1-2 2-4 0-6a9 9 0 00-6-3c-5-1-10 1-13-4-4-5 0-9 4-13zm-67-40l6-4 7-4c4-2 9-3 14-2s7 7 9 11c1 4 3 9 2 14-3 5-9 6-13 7-5 1-11 2-15-1s-9-4-12-9c-2-4-2-9 2-12zm87-3c5 4 10 13 5 19-3 4-9 5-13 6l-6 1-7-4c-5-2-9-6-10-11-2-5 0-10 3-14 4-3 8-5 13-5 6 0 10 3 15 8zm-67 45c-2-3-3-8-1-10 2-3 6-3 9-4l13 2c4 0 8 0 10 3 4 6-1 13-7 14-4 1-8-1-13-2-4 0-8 0-11-4z"/>
  </g>
  <g>
    <path class="centre" d="M1067 718c9 2 22 2 28 11 3 4 2 10 1 14l-2 16c-2 5-6 8-10 12l-6 5-6 4-13 11c-4 2-8 3-11 7l-8 12c-4 4-8 7-13 7l-8-1-8-3-7-3-7-4c-3-1-5-3-6-5-2-3-1-6-1-9 2-6 1-12 2-18 0-6 0-12 2-18 2-5 5-10 9-14a22 22 0 0114-8l9-1 8-4c5-4 11-6 17-8l10-2 6-1z"/>
    <path d="M977 805l-1-13-4-12 1-12c1-4 3-5 6-7 3-1 6-3 5-6l-2-5v-6c0-4 2-7 5-9l6-7c3-3 5-4 9-4l14 1 6 1 6 1c3 0 6-5 8-7 6-5 13-10 20-13 6-4 14-6 22-4 5 1 12 4 14 10 1 7-5 14-11 16l-12 2c-4 1-8 2-12 0-3-1-4-3-7-2-4 2-5 6-8 9-1 2-5 4-6 7-2 3 0 8-3 11-2 3-7 2-10 0-3-1-4-4-8-2l-7 5c-3 3-4 6-4 10-1 4-2 8-1 11l1 10c0 4 1 7 4 9 4 2 7 2 9 6 3 7 2 18-7 19l-5-2-5-1-12-3c-5-2-12-6-11-13zm137-88c12-1 22 12 19 24-2 7-8 14-14 18-3 2-5 2-8 0-3-1-6-4-8-1l-6 8-9 5c-5 2-12 3-16-2s-3-12 1-16c4-5 10-7 16-9 4-1 5-3 6-7l4-9c3-6 7-12 15-11z"/>
    <path d="M1047 833c-6 1-10-1-13-5-4-5-9-8-9-15l2-7 2-8c1-5 6-6 10-10 3-3 7-8 12-8 5-1 10 2 13 5 3 4 6 9 6 14l-2 7c-2 2-1 3 0 5 1 6-4 11-6 16-4 5-9 7-15 6z"/>
  </g>
  <g>
    <path class="centre" d="M1087 676c-9 1-19-3-28-5-7-2-15-4-20-11l-7-10c-2-2-5-5-5-9 0-3 2-6 5-8l12-7 12-6c4-2 6-6 9-8 7-5 17-6 25-5 9 0 17 0 23 8 6 7 5 16 5 24 0 5 2 10 0 15l-8 13c-6 8-14 9-23 9z"/>
    <path d="M1136 662c-1 9-1 20-9 25-6 3-12 3-17 0l-8-5-8-4c-5-3-10-8-9-14 1-3 3-4 6-5 3-2 3-4 5-7l6-2 4-5c3-5 9-7 15-7 11 2 15 14 15 24zm-8-69c0 6-2 12-5 17-2 4-4 9-8 12a8 8 0 01-6 2h-8c-5 2-11 4-16 4-5-1-10-4-10-10l2-7 4-8 4-6 2-5 6-2 8-4c6-4 10-8 17-6 7 1 10 6 10 13zm-73 27c0 5-2 9-5 13l-10 12c-3 3-7 5-12 4s-9-4-12-8c-5-7-3-17 0-25 4-7 11-13 20-13 5-1 11 1 15 4 4 4 4 9 4 13zm5 63c-9 0-19 0-27-5-4-3-7-7-6-11 1-2 3-4 3-7l4-7c3-4 6-4 10-4 5 1 10 3 16 3 4 1 9 1 13 5 3 2 3 7 3 11 0 8-7 17-16 15z"/>
  </g>
  <g>
    <path class="centre" d="M1005 855c12 1 23 4 33 9 8 5 17 10 22 19 3 4 4 10 5 15s2 11 5 15c4 3 7 6 9 11l2 16c0 10-7 15-16 16-5 0-10-2-15-4l-18-2-16-6c-5-3-8-5-11-10-5-10-11-20-15-31l-8-16c-4-5-8-9-6-15 4-11 19-16 29-17z"/>
    <path d="M965 863c-1-5 0-12 4-16l6-4 6-7c10-6 22-3 31 3l16 10c6 2 13 1 19 1l17-1c4-1 9-2 11 2 3 4 1 10 0 15-2 6-1 13-2 19-1 5-2 12-6 15-4 4-11 7-16 5s-6-6-6-11l-3-16c-1-3-2-4-5-4h-8c-7-1-11-6-16-8-2-1-5-2-7-1-2 2-3 7-4 10-2 5-7 10-13 12-6 3-12 0-17-4l-6-8c-2-4-1-8-1-12zm67 98l-12-2c-4 0-8-1-11-3-7-4-14-8-20-14l-5-11-2-13c-2-8 5-15 12-17 6-2 16-2 20 3 5 4 2 12 3 17 0 3 3 15 7 14l4-2 6-2h12c6 3 9 11 5 16l-4 5-4 5c-2 3-7 4-11 4zm42 5c-4 0-9-2-12-5-3-5 0-10 1-15 0-2 1-3 3-4l1-6c1-6 4-10 6-15 3-4 6-7 11-5s5 6 5 11l2 6c1 3 3 3 6 4 5 3 4 8 2 12-2 5-4 10-9 12-4 3-11 5-16 5z"/>
  </g>
  <g>
    <path class="centre" d="M1087 1071c12-1 22 1 31 9 3 2 7 4 7 8v18c0 5-1 9-5 13l-12 9c-5 3-9 6-12 10-4 4-9 4-14 6-4 2-8 7-13 9s-10 3-16 3c-10 0-21-1-30-6-5-3-9-6-11-11l-1-8 1-9c1-8 5-18 12-23 5-3 11-3 16-5l13-11c4-4 9-8 14-10 7-3 13-3 20-3z"/>
    <path d="M996 1140l1-13c0-3 0-7 2-10l6-10 6-11c3-7 11-10 17-12 8-2 16 0 22 4 2 2 4 4 2 7 0 2-1 2-2 3-2 1-3 1-3 3l-4 7-12 3-9 1c-3 1-4 5-4 8l3 9c1 3 2 7 4 9 4 6 11 6 17 7l9 4c4 1 6 0 8-3 4-6 6-13 11-19l7-6c4-2 7-2 11-2h12c3 0 7 0 8 3l-3 10-4 11-16 13-9 6-8 7c-7 6-16 5-24 7-8 1-17-3-24-6-11-6-24-16-24-30zm138-69c9-1 16 6 16 14v2c0 2 0 5-2 7l-4 5c-3 3-5 7-10 8-4 2-10 2-15 2s-10 0-14-3c-7-5-2-14 3-19l12-10c4-4 8-7 14-6zm-57 18c-7-1-22-2-24-11 0-4 3-7 6-10l5-4c2-2 4-2 7-2l16-2 15 3c4 1 7 2 8 6 1 3 0 6-2 8-3 4-9 5-13 7-6 3-11 5-18 5z"/>
  </g>
  <g>
    <path class="centre" d="M899 1081c7-5 15-11 24-13 8-2 16 0 23 4 4 3 6 6 11 8 3 1 7 4 8 7l4 10c0 4-2 7-4 10l-8 10c-3 4-6 5-10 6-8 2-14 6-21 9-10 3-25 7-33-4-3-3-3-8-4-12s-4-7-3-11c0-4 3-9 4-13 2-4 5-8 9-11z"/>
    <path d="M913 1081l-8 8c-2 4-1 8-2 11 0 7-6 12-13 12-3-1-6-1-8-3-3-3-6-6-6-10v-6c1-2 3-2 3-4l1-5 3-7 8-9c2-2 5-5 9-5 3 1 6 4 9 3 2-1 2-7 2-10 1-3 4-6 8-6 4-1 6 2 9 5 6 6 13 12 15 21 2 7-6 15-13 11l-6-5-4-5c-3-1-5 3-7 4zm69 3c4 4 8 10 8 16l-5 8-6 2-6 1h-7c-1 1 0 2 1 3l3 5c1 6-4 13-9 15l-12 3c-3 1-7 3-10 1-8-3-8-13-5-19 3-7 11-9 18-10 2 0 7-1 7-4l-2-4-2-6c-1-7 0-18 8-20 8-1 15 4 19 9zm-60 40c2 3 4 7 2 10-2 5-6 10-11 11-5 2-10 2-15 1s-8-4-11-8c-2-4-3-9-1-13 2-5 7-6 12-7 8-1 18-1 24 6z"/>
  </g>
  <path d="M1007 463l15-10c4-2 8-4 12-4 6 0 10 3 10 9l-1 7-2 6c-2 2-4 2-7 3l-8 4c-4 3-8 6-13 6s-11-1-11-7c-1-5 1-10 5-14z"/>
  <g>
    <path class="centre" d="M820 10c9-1 17 6 24 12 3 3 7 5 9 9 4 4 3 9 3 14-1 6 1 11 2 17 1 5 0 11-3 16-2 4-4 8-9 10l-6 2-7 4-13 6-15-3-16-5c-6 0-11 0-16-2-5-1-9-4-12-7l-5-6-4-6c-2-4-3-10 0-14l8-10 12-13 15-9 17-11a38 38 0 0116-4z"/>
    <path d="M825-9c5 0 10-1 13 3 4 5 1 11 1 16 0 4 1 9-2 12-4 4-10-1-13-3-5-4-8-4-12 1-2 2-3 4-3 7l1 8c1 4 0 9-4 11-5 2-8-2-11-5-4-3-10-4-14-2-3 1-4 3-5 5a31 31 0 00-5 7c-1 5-4 10-7 14l-5 5c-3 2-6 2-9 2-10-1-17-12-11-21l5-7 4-8c3-5 6-7 12-8l8-4 10-2c3 0 5-3 7-5l9-5c6-4 10-10 15-15l6-5 10-1zm52 84c0 11-6 18-16 21l-18 7c-5 2-10 3-15 0-6-5-4-15-1-21l3-5c2-2 3-2 6-2 5 0 11-6 15-9l8-6c4-1 7-1 10 1 5 2 9 7 8 14zm-64 16c0 8-7 18-14 21-8 4-18 1-25-3-4-2-8-4-10-7-4-4-2-9 1-13 5-7 13-13 22-11l18 4c5 2 8 4 8 9zm52-77l-2 8-1 9c-1 5-3 11-6 15-3 6-16 9-20 1v-7-8c1-5 5-9 8-13 2-5 7-8 11-10 5-2 10 0 10 5z"/>
  </g>
  <g>
    <path class="centre" d="M767 580c10-1 17 5 24 11l10 9c3 5 2 10 2 15 0 6 2 11 3 16 0 6-1 11-3 16-2 4-5 9-9 10l-7 3-7 4c-4 2-8 5-13 5s-10-1-14-3l-17-4c-5 0-11 0-16-2-4-1-9-4-12-8l-4-5-5-6c-2-4-2-10 0-14s6-7 9-10c4-5 7-10 12-14l14-8 17-11a38 38 0 0116-4z"/>
    <path d="M773 561c4 0 9-1 13 3s1 11 0 16c0 3 1 8-2 11-4 4-9 0-13-3-5-3-8-3-12 2-2 2-3 4-3 7l2 7c0 4-1 9-5 11-4 3-7-2-11-4-4-3-9-4-14-2l-5 5a31 31 0 00-4 7l-8 14-5 5c-2 2-5 2-8 1-10 0-17-12-12-21l5-6 5-8c3-6 6-7 12-9l7-3 10-2 8-5 9-5 14-15 7-5c3-2 6-1 10-1zm52 84c0 10-6 17-16 21l-19 7c-4 2-9 3-14 0-7-5-4-15-1-21l2-5c2-3 4-2 6-3 6 0 12-5 16-8l8-7c3-1 6 0 9 1 6 3 10 8 9 14zm-65 16c1 8-6 18-13 21-8 4-19 1-26-4l-10-6c-3-4-2-9 1-13 5-7 14-13 23-12l18 5c4 2 7 4 7 9zm52-77c1 3-1 5-2 8l-1 8c0 6-2 11-5 16-4 6-17 8-20 1l-1-7 1-8c0-5 4-9 7-14 3-4 7-7 12-9 4-2 9-1 9 5z"/>
  </g>
  <g>
    <path class="centre" d="M821 425l30 1c8 1 17 3 24 7 7 3 9 10 14 16l6 9v12c-3 8-10 11-18 13s-17 4-25 3c-7-1-14-6-19-11s-10-11-12-18l-2-6c-1-3-2-5-4-6-2-3-7-7-8-11-1-7 9-10 14-10z"/>
    <path d="M844 502c-10 0-21-2-25-12-3-8-2-19 5-25 3-3 8-4 12-2 3 0 5 2 6 4l1 6c1 2 2 2 4 1l10-2c6 0 11 4 11 10 1 6-1 13-6 17-5 3-12 4-18 3zm-32-55c-7 0-14-3-17-10a25 25 0 01-2-14c0-4 0-10 2-14 5-8 16-7 23-2l10 11c3 3 5 7 5 11 0 5-2 10-6 14-3 3-10 5-15 4zm47-34c8 1 18 1 23 8 7 8 1 20-8 23-5 2-10 2-15 1a9 9 0 01-5-4l-4-9c-1-2-4-3-5-6s0-6 1-9c3-4 8-4 13-4zm49 49c-1 7-4 16-11 19-10 3-14-7-16-15s3-16 11-17 17 5 16 13z"/>
  </g>
  <g>
    <path class="centre" d="M1100-10c10 0 27 7 20 20l-6 6c-3 1-4 4-6 7-2 6-8 9-12 13-6 5-11 8-18 10h-11c-3-1-6-3-8-6l-7-6c-3-2-4-3-4-7 0-7 4-13 8-17l10-8 12-4 10-5c3-2 7-3 12-3z"/>
    <path d="M1064 13c0 6-4 11-6 17-1 4-4 9-10 9l-18-6-9-2-8-2c-13-7 1-17 7-22 4-3 11-5 14 0 1 3 2 4 5 4l6-2c4-3 6-8 12-7 6 0 7 6 7 11zm74-22c1 3-1 5-1 7l-2 8c-1 5-4 9-7 12-5 3-10 0-15-1-4-2-9-4-11-8-2-5 1-10 3-14 3-5 6-9 11-11 5-1 9-4 14-2 5 1 8 4 8 9zm-56 66c-6 1-16-1-17-9-1-5 2-9 4-13l4-6 7-2c5-2 10-3 15 0 5 2 7 7 8 12 0 4-1 9-5 13-5 4-9 5-16 5zm12-79c3 0 8 2 8 6 1 3-2 6-4 9l-9 8c-3 3-6 6-10 5-7 0-9-9-5-14l9-8c4-3 6-6 11-6z"/>
  </g>
  <g>
    <path class="centre" d="M391 1289c-1 9-2 22-11 28-4 3-10 2-14 1l-15-3c-5-1-9-6-13-9l-5-6-4-7c-4-4-8-7-10-12-3-4-3-8-8-11l-11-8c-5-4-8-8-8-14l1-7 3-8 4-7 3-7c2-3 3-5 6-6 2-2 5-1 8-1 6 2 12 1 18 2 6 0 12 0 18 2 5 1 10 5 14 9 5 3 7 8 8 13l1 10 5 8c3 5 6 11 7 17l2 10 1 6z"/>
    <path d="M304 1199l13-1 12-4 13 1c3 1 4 3 6 6s3 6 7 5l4-2h7c3 0 6 2 8 5l8 6c3 3 3 5 3 9l-1 14v6l-2 6c0 3 5 6 7 8 6 6 10 13 13 20 4 6 6 14 4 22-1 5-4 12-10 14-7 1-14-5-16-11l-2-12c-1-4-2-8 0-12 2-2 4-4 2-7-2-4-5-5-8-7s-5-6-8-7c-3-2-8 0-11-3-3-2-2-7 0-10 1-3 4-4 3-8l-5-7c-3-3-7-4-11-4s-7-2-11-1l-10 1c-3 0-6 1-8 4-2 4-3 7-7 9-6 3-17 2-18-7-1-2 0-3 1-5l1-5 3-11c3-6 6-13 13-12zm89 137c0 12-13 22-25 19-7-2-14-8-18-14-1-3-2-5 0-8s4-6 1-8l-8-6-5-9c-2-5-3-12 3-16 5-4 11-3 16 1s6 10 8 16c1 4 3 5 7 6l9 4c6 3 12 7 12 15z"/>
    <path d="M276 1269c-1-6 2-10 6-13 4-4 8-9 14-9l8 2 7 1c5 2 6 7 10 11 4 3 8 7 8 12 1 5-2 10-5 13-4 3-9 6-14 6l-7-2c-2-2-3-1-5 0-6 1-11-4-15-7-5-2-8-8-7-14z"/>
  </g>
  <g>
    <path class="centre" d="M245 1208c0 12-3 23-9 33-5 8-10 17-18 22l-16 5c-5 1-10 2-14 5s-6 7-11 9l-17 2c-9 0-15-7-15-16-1-5 1-10 3-16 2-5 2-11 3-17s3-11 6-16c2-5 4-8 9-11l32-16 16-7c4-4 8-8 14-6 11 4 16 19 17 29z"/>
    <path d="M237 1167c6 0 12 1 16 5l5 6 6 6c6 9 4 22-2 31-4 5-8 10-10 16s-2 12-2 19l1 17c1 4 2 9-2 11-4 3-10 0-15-1l-19-1c-5-1-12-2-15-6-4-4-7-11-5-16s7-6 11-7l16-2c3-1 4-2 4-5v-9c1-6 6-10 8-16 1-1 2-5 1-6-2-3-7-3-9-4-6-3-11-7-13-13-3-7 0-12 5-17 2-3 4-5 7-6 4-2 8-2 12-2zm-97 68l1-12c0-5 1-8 3-11 5-7 8-14 15-20 3-3 6-5 10-5l13-2c8-2 15 4 17 12 2 5 2 16-2 20-5 5-12 1-18 3-2 0-14 3-14 7 0 2 2 3 3 4l2 6c0 4 1 9-1 12-3 6-11 8-16 5l-5-4-5-4c-3-3-3-7-3-11zm-5 42c-1-5 1-9 5-12s9-1 14 0l5 3c2 2 4 1 6 2 5 0 10 4 14 6 4 3 7 6 5 11-1 5-6 5-11 5l-6 2c-2 1-3 3-4 6-3 5-7 4-12 2s-9-5-12-9-5-11-4-16z"/>
  </g>
  <g>
    <path class="centre" d="M46 1258v-20l-3-16c0-7 1-16 7-20 5-3 10-2 15-4 4-3 9-5 14-6 5-2 11-4 16-4s11 3 14 6c4 4 6 9 8 13 3 4 5 9 6 14l-3 17-3 18-5 15c-1 6-4 10-7 16-2 4-2 10-6 13-5 2-10 1-14 1l-19-3c-5 0-11-2-14-6-3-3-4-9-5-14l-1-21z"/>
    <path d="M24 1276c-1-6 0-11 3-16s8-6 12-10c3-2 8-6 7-10s-6-7-8-10c-3-3-5-8-9-10-3-1-8-2-10-6-5-11 11-14 19-14 5 0 10 0 14 3 5 2 9 7 11 11 5 8 10 18 3 26-4 3-7 1-11 1-4 1-4 5-2 8l5 2 3 5c1 4-2 10-3 14l-3 18c-2 5-7 8-13 8l-8-2c-3 0-5-1-7-3-4-4-3-10-3-15zm81-1c2 0 5 0 7 2s2 5 2 7c-1 6-5 10-7 15-1 2-2 5-4 6l-5 1-7 4-9 2c-5 2-10 6-16 4l-7-5c-2-1-4-2-5-5-1-4-3-12 2-14l6-2 9-2c6-1 13 1 17-4s9-9 17-9zm-5-43c-1-2 0-4 1-7 1-1 4-2 4-4l-1-5c-1-3 0-5 2-8 3-4 9-5 13-2 4 2 7 7 9 10 4 5 4 9 3 15-2 6-1 12-2 17 0 5-1 9-5 12-3 2-9 3-13 1s-6-7-7-11c-1-6-5-11-4-18zm-4-68c15-1 33 29 14 35-5 1-10-2-14-2-5-1-11 0-16-2-8-2-13-9-8-17 2-4 5-8 9-11l15-3z"/>
  </g>
  <g>
    <path class="centre" d="M510 1256c0 11-2 21-9 30-3 4-5 7-9 8h-17c-5 0-10-1-13-5l-10-12-10-13c-4-4-3-9-6-13-2-5-6-8-9-13a61 61 0 013-47c3-4 6-8 11-10l8-1h9c8 2 18 5 23 12 4 5 3 11 5 16 3 6 7 10 11 14s8 8 10 14c3 6 3 13 3 20z"/>
    <path d="M440 1165c4-1 9 0 13 1 4 0 7 0 10 2l10 6 11 5c7 3 11 12 12 18 2 7 1 15-4 21-2 2-4 4-7 3l-2-3-4-3c-3 0-5-1-7-4l-3-12-1-9c0-3-4-4-7-4l-10 3c-3 1-7 2-9 4-6 5-6 11-7 17l-4 10c-1 3 0 5 3 7 6 5 13 7 19 12l6 7c2 3 2 7 2 11v11c0 3 1 7-3 8-3 1-7-2-10-2l-11-5c-5-4-8-11-13-16l-6-8-7-8c-6-7-5-16-7-24-1-8 3-17 7-24 5-12 15-24 29-24zm70 138c0 8-7 15-15 16l-2-1-7-1-5-5c-3-3-7-5-8-9-2-5-2-10-2-15s0-10 3-14c5-8 14-3 19 2 4 4 6 9 10 12 5 5 7 9 7 15zm-19-57c1-7 2-23 11-24 5-1 7 3 10 6l4 4c2 3 2 5 2 8l2 15c1 5-1 11-2 16-1 3-3 7-7 8-3 0-6-1-8-3-4-3-4-9-7-13-2-5-5-11-5-17z"/>
  </g>
  <g>
    <path class="centre" d="M638 1214c10 1 22 2 28 11 3 4 2 9 1 14l-2 15c-2 5-6 9-10 13l-6 5-6 4c-4 4-8 8-13 10-4 3-8 3-11 8l-8 11c-3 5-7 8-13 8l-7-2-9-2-7-4-7-3-6-6c-2-3-1-5 0-8l1-18c0-6 0-12 2-18 2-5 5-10 9-14a22 22 0 0114-8l9-2 8-4a107 107 0 0127-10h6z"/>
    <path d="M548 1301v-13c-1-5-4-8-4-13v-12c1-3 3-5 6-6 3-2 6-4 5-7l-2-4v-7c1-3 2-6 5-9l7-7c2-3 4-3 8-3l14 1h7l5 1c3 0 6-4 9-6 5-6 12-10 19-14 7-3 14-5 22-4 5 2 12 5 14 11 1 6-5 13-11 15-3 2-8 2-12 2s-8 2-12 0c-2-1-4-3-7-1-4 2-5 5-7 8l-7 8c-2 3 0 7-3 10-2 3-6 3-9 1s-5-4-9-3l-7 5c-3 3-4 7-4 11 0 3-2 7-1 11l1 9c0 4 1 7 4 9 4 2 7 3 9 7 3 6 2 17-7 18l-4-1-6-1-11-4c-6-2-13-5-12-13zm137-89c12-1 22 13 19 25-2 7-8 14-14 17-3 2-5 3-8 1s-5-4-8-1l-6 7-8 5c-6 3-13 4-17-2-3-5-3-11 1-16 5-5 11-6 17-8 3-2 5-3 6-7 0-4 2-7 4-10 3-6 6-11 14-11z"/>
    <path d="M618 1329c-6 1-10-2-13-6-4-4-9-8-9-14l2-8 2-7c1-5 7-6 10-10s8-8 13-8c4-1 9 2 12 5 3 4 6 9 6 14 1 3 0 4-2 7-2 2-1 3 0 5 1 6-4 11-6 15-3 5-9 8-15 7z"/>
  </g>
  <g>
    <path class="centre" d="M947 1160c5-1 9 1 14 3l14 3c4 1 7 2 9 5 3 4 6 8 7 13 1 4 0 8-1 12l-5 13c-4 8-11 15-19 20-14 9-33 8-48 1-8-4-13-10-17-18l-4-12c-2-5-1-9 1-14 2-8 10-12 17-16 10-6 21-9 32-11v1z"/>
    <path d="M973 1224c0 4-3 7-5 10l-2 5c-1 3-3 4-5 6-5 6-2 15-8 21-4 4-12 3-14-3-2-3-2-4-5-4-5 0-9-2-12-4l-12-8-10-7c-3-3-5-6-5-10l5-10c4-6 8-12 16-11l7 5c1 3 1 7 3 9s4 1 6 2h7c5 0 11-2 15-5 6-3 19-6 19 4zm-96-37c-1-11 9-23 20-25h9l10-1c5-1 13-2 15 4 4 9-10 17-17 20l-6 3-1 7c-1 5-3 8-9 9-11 2-21-7-21-18zm81-42c7 0 21-2 25 7 2 4 0 12-3 16-3 2-6 3-10 3-4 1-6 2-7 6-1 5-3 13-9 14-5 1-14-3-14-9 0-5 13-15 8-20-2-2-5-1-7-4a8 8 0 01-1-10c4-5 12-3 18-3zm27 65c-5 0-10-3-12-8l-3-7c0-3 3-3 4-5 2-2 2-5 3-7l2-9c1-5 3-9 8-8 6 0 11 2 16 6 4 4 2 9 0 13l-9 17c-2 4-4 8-9 8z"/>
  </g>
  <g>
    <path class="centre" d="M820 1210c9-1 17 6 24 12 3 3 7 5 9 9 4 4 3 9 3 14-1 6 1 11 2 17 1 5 0 11-3 16-2 4-4 8-9 10l-6 2-7 4-13 6-15-3-16-5c-6 0-11 0-16-2-5-1-9-4-12-7l-5-6-4-6c-2-4-3-10 0-14l8-10 12-13 15-9 17-11a38 38 0 0116-4z"/>
    <path d="M825 1191c5 0 10-1 13 3 4 4 1 11 1 16 0 4 1 9-2 12-4 4-10-1-13-3-5-4-8-4-12 1-2 2-3 4-3 7l1 8c1 3 0 9-4 10-5 3-8-1-11-4-4-3-10-4-14-2-3 1-4 3-5 5a31 31 0 00-5 7c-1 5-4 10-7 14l-5 5c-3 2-6 2-9 2-10-1-17-13-11-21l5-7 4-8c3-5 6-7 12-8l8-4 10-2 7-5 9-5c6-4 10-10 15-15l6-5c3-2 7-1 10-1zm52 84c0 11-6 18-16 21l-18 7c-5 2-10 3-15 0-6-5-4-15-1-21l3-5c2-2 3-2 6-2 5-1 11-6 15-9l8-6c4-1 7-1 10 1 5 2 9 7 8 14zm-64 16c0 8-7 18-14 21-8 4-18 1-25-3-4-2-8-4-10-7-4-4-2-9 1-13 5-7 13-13 22-11l18 4c5 2 8 4 8 9zm52-77l-2 8-1 9c-1 5-3 11-6 15-3 6-16 9-20 1v-7-8c1-5 5-9 8-13 2-5 7-8 11-10 5-2 10 0 10 5z"/>
  </g>
  <g>
    <path class="centre" d="M1100 1190c10 0 27 7 20 20l-6 6c-3 1-4 4-6 7-2 6-8 9-12 13-6 4-11 8-18 10h-11c-3-1-6-3-8-6l-7-6c-3-2-4-4-4-7 0-7 4-13 8-17l10-8 12-4 10-5c3-2 7-3 12-3z"/>
    <path d="M1064 1213c0 6-4 11-6 17-1 4-4 9-10 9l-18-6-9-2c-3 0-6 0-8-2-13-7 1-17 7-22 4-3 11-5 14 0 1 3 2 4 5 4 2 0 5 0 6-2 4-3 6-8 12-7 6 0 7 6 7 11zm74-22c1 3-1 5-1 7l-2 8c-1 5-4 9-7 12-5 3-10 0-15-1-4-2-9-4-11-8-2-5 1-10 3-14 3-5 6-9 11-11 5-1 9-4 14-2 5 1 8 4 8 9zm-56 66c-6 1-16-1-17-9-1-5 2-9 4-13l4-6 7-2c5-2 10-3 15 0 5 2 7 7 8 12 0 4-1 9-5 13-5 4-9 5-16 5zm12-79c3 0 8 2 8 6 1 3-2 6-4 9l-9 8c-3 3-6 6-10 5-7 0-9-9-5-14l9-8c4-3 6-6 11-6z"/>
  </g>
</svg>